<svg id="edeHcSq1syM1" xmlns="http://www.w3.org/2000/svg" xmlns:xlink="http://www.w3.org/1999/xlink" viewBox="0 0 300 300" shape-rendering="geometricPrecision" text-rendering="geometricPrecision" project-id="90a1e0ba5863412e94f4e65d4c523be8" export-id="284238385b424f2582afd89b5b65b68d" cached="false"><rect width="122.026641" height="57.802093" rx="0" ry="0" transform="translate(35.466224 72.787821)" fill="#d2dbed" stroke-width="0"/><polygon points="0,-45.542384 39.440861,22.771192 -39.440861,22.771192 0,-45.542384" transform="matrix(.001153 0.999999-.999999 0.001153 193.886776 101.701993)" fill="#d2dbed" stroke-width="0"/><path d="M68.2921,161.27498c33.47816,0,75.02453-8.37149,92.76879,27.11703.62316,1.24632,1.3341,2.86774,2.01694,4.68403-22.53387,14.24292-34.3919,29.43864-60.53263,15.29693-12.9617-7.01207-28.67569-15.4161-42.87473-22.59334-1.49261-18.92157-.13682-39.68558,13.61689-25.93187l-4.99526,1.42722Zm-4.99524,48.52521c-.19402-.54326-.43002-1.44165-.68974-2.62572c16.29035,12.51432,32.12179,23.7705,47.31583,31.38215-20.41661-.85326-39.97321-10.12836-46.62609-28.75643Z" transform="translate(.000001 0)" fill="#d61010" stroke="#3f5787" stroke-width="0.6"/></svg>
