<?xml version="1.0" encoding="UTF-8" standalone="no"?>
<svg width="60px" height="60px" viewBox="0 0 60 60" version="1.1" xmlns="http://www.w3.org/2000/svg" xmlns:xlink="http://www.w3.org/1999/xlink" xmlns:sketch="http://www.bohemiancoding.com/sketch/ns">
    <!-- Generator: Sketch 3.3.3 (12081) - http://www.bohemiancoding.com/sketch -->
    <title>ao-symbol-red</title>
    <desc>Created with Sketch.</desc>
    <defs></defs>
    <g id="Page-1" stroke="none" stroke-width="1" fill="none" fill-rule="evenodd" sketch:type="MSPage">
        <g id="ao-symbol-red" sketch:type="MSArtboardGroup">
            <rect id="Rectangle-90" fill="#F0595C" sketch:type="MSShapeGroup" x="0" y="0" width="60" height="60"></rect>
            <g id="logo" sketch:type="MSLayerGroup" transform="translate(8.000000, 6.000000)" fill="#FFFFFF">
                <g id="Group" sketch:type="MSShapeGroup">
                    <path d="M0.0847164179,15.1511045 C-0.49319403,16.6451343 1.88871642,18.906209 7.18119403,21.8686567 L7.66256716,21.0050746 C0.529970149,17.0056716 0.98638806,15.5687761 1.00937313,15.5070448 C1.21295522,14.9829851 3.34859701,14.3952239 9.97420896,15.9365373 L10.198806,14.9665672 C4.08214925,13.5467463 0.684955224,13.6104478 0.0847164179,15.1511045" id="Shape"></path>
                    <path d="M18.3716418,0.667223881 C17.5277612,0.782149254 16.9150448,1.69367164 16.5052537,3.45826866 C16.1217313,5.09414925 15.9253731,7.54107463 15.8945075,10.5370149 L16.8730149,10.4470448 C16.9577313,1.95110448 18.4438806,1.65820896 18.5049552,1.65098507 C19.056597,1.57414925 20.5808358,3.1601194 22.4452537,9.70429851 L23.4480597,9.5880597 C21.7281194,3.5561194 19.985194,0.449850746 18.3716418,0.667223881" id="Shape"></path>
                    <path d="M35.4810746,26.5786269 C43.0214925,31.0259104 42.5046567,32.5153433 42.4816716,32.5744478 C42.253791,33.1175522 40.0176716,33.6567164 33.162209,31.8290746 L32.9080597,32.7872239 C37.2430448,33.9351642 42.5788657,34.9064478 43.3971343,32.960597 C44.0295522,31.4396418 41.540597,29.0025672 35.987403,25.7268657 L35.4810746,26.5786269 L35.4810746,26.5786269 Z" id="Shape"></path>
                    <path d="M26.0125373,37.3435224 C26.0657313,46.0936119 24.5277015,46.4147463 24.4646567,46.4213134 C23.8847761,46.5099701 22.2751642,44.8635821 20.3161791,38.0442388 L19.3659104,38.3174328 C20.5979104,42.6287761 22.5148657,47.7045373 24.6045373,47.4031045 C26.2371343,47.168 27.0422687,43.7806567 27.0041791,37.3376119 L26.0125373,37.3435224 L26.0125373,37.3435224 Z" id="Shape"></path>
                </g>
                <path d="M23.090806,24.0522388 C23.1367761,23.1768358 22.4669254,22.4301493 21.5915224,22.3841791 C20.7207164,22.3388657 19.9740299,23.0113433 19.9280597,23.8860896 C19.8774925,24.7542687 20.5420896,25.5055522 21.4148657,25.5587463 C22.2876418,25.612597 23.0362985,24.9453731 23.0894925,24.0699701 L23.090806,24.0522388 L21.5081194,23.9694925 L23.090806,24.0522388 L23.090806,24.0522388 Z" id="Shape" sketch:type="MSShapeGroup"></path>
                <path d="M6.78453731,23.2740299 C6.57241791,27.1709851 7.89438806,30.9339701 10.5041791,33.8491343 C13.116597,36.7636418 16.7101493,38.4921194 20.6202388,38.7016119 C28.6886567,39.1442388 35.6143881,32.942209 36.0576716,24.873791 L36.0609552,24.8087761 C36.4838806,16.7390448 30.2634627,9.82776119 22.1911045,9.40483582 C14.1213731,8.98125373 7.20746269,15.2036418 6.78453731,23.2740299 M20.9144478,33.2764776 C18.4537313,33.1425075 16.196597,32.0556418 14.554806,30.223403 C12.9051343,28.3859104 12.0750448,26.0230448 12.2116418,23.5629851 C12.4782687,18.4780299 16.8263881,14.5679403 21.9067463,14.8339104 C26.9818507,15.0998806 30.897194,19.443403 30.6312239,24.5237612 L30.628597,24.5789254 C30.3521194,29.6481194 25.9921791,33.5555821 20.9144478,33.2764776" id="Shape" sketch:type="MSShapeGroup"></path>
                <path d="M19.0270448,20.1881194 C9.83104478,27.2005373 3.13779104,34.0704478 2.75952239,36.9120597 C2.69779104,37.3632239 2.77725373,37.7349254 2.99922388,38.0192836 C3.21856716,38.3115224 3.55480597,38.4901493 4.00334328,38.5492537 C6.83970149,38.9268657 15.2443582,34.2983284 24.4429851,27.2872239 C31.9728955,21.5475224 42.4586866,12.0579701 40.470806,9.45408955 C40.2514627,9.16185075 39.9152239,8.98322388 39.4693134,8.92149254 C36.6303284,8.54585075 28.2256716,13.1691343 19.0270448,20.1881194 M4.13797015,37.5648358 C4.01713433,37.5503881 3.85820896,37.5096716 3.78465672,37.4229851 C3.71635821,37.3310448 3.72226866,37.1675224 3.7360597,37.043403 C4.02764179,34.9071045 9.69247761,28.5454925 19.6292537,20.9722388 C29.563403,13.4009552 37.1970746,9.62023881 39.3346866,9.90656716 C39.4555224,9.92101493 39.6144478,9.95910448 39.6853731,10.0536716 C39.9375522,10.3866269 39.512,12.0126567 36.0438806,15.7441194 C33.0545075,18.9633433 28.7214925,22.7808358 23.843403,26.5011343 C13.9066269,34.0724179 6.27295522,37.8557612 4.13797015,37.5648358" id="Shape" sketch:type="MSShapeGroup"></path>
                <path d="M13.376,11.7880597 C6.62364179,16.2235224 4.73361194,25.3282388 9.16907463,32.0858507 L13.7155224,29.0991045 C10.9205373,24.8481791 12.1085373,19.1242388 16.3627463,16.3351642 C20.3713433,13.6971343 25.8115821,14.6178507 28.7352836,18.4248358 L33.0413731,15.1130149 C28.3931343,9.06268657 19.7520597,7.60346269 13.376,11.7880597" id="Shape" sketch:type="MSShapeGroup"></path>
            </g>
        </g>
    </g>
</svg>