<?xml version="1.0" encoding="UTF-8" standalone="no"?>
<svg
   xmlns:dc="http://purl.org/dc/elements/1.1/"
   xmlns:cc="http://creativecommons.org/ns#"
   xmlns:rdf="http://www.w3.org/1999/02/22-rdf-syntax-ns#"
   xmlns:svg="http://www.w3.org/2000/svg"
   xmlns="http://www.w3.org/2000/svg"
   xmlns:sodipodi="http://sodipodi.sourceforge.net/DTD/sodipodi-0.dtd"
   xmlns:inkscape="http://www.inkscape.org/namespaces/inkscape"
   version="1.1"
   id="svg4528"
   viewBox="0 0 150.00016 150.22703"
   height="42.397408mm"
   width="42.333378mm"
   inkscape:version="0.91 r13725"
   sodipodi:docname="Logo_Caminoeurope_Quadratisch_Icon_de.svg">
  <sodipodi:namedview
     pagecolor="#ffffff"
     bordercolor="#666666"
     borderopacity="1"
     objecttolerance="10"
     gridtolerance="10"
     guidetolerance="10"
     inkscape:pageopacity="0"
     inkscape:pageshadow="2"
     inkscape:window-width="640"
     inkscape:window-height="480"
     id="namedview8"
     showgrid="false"
     showborder="false"
     inkscape:zoom="1.5709556"
     inkscape:cx="75.000079"
     inkscape:cy="75.113517"
     inkscape:window-x="0"
     inkscape:window-y="0"
     inkscape:window-maximized="0"
     inkscape:current-layer="svg4528" />
  <defs
     id="defs4530" />
  <metadata
     id="metadata4533">
    <rdf:RDF>
      <cc:Work
         rdf:about="">
        <dc:format>image/svg+xml</dc:format>
        <dc:type
           rdf:resource="http://purl.org/dc/dcmitype/StillImage" />
        <dc:title></dc:title>
      </cc:Work>
    </rdf:RDF>
  </metadata>
  <rect
     style="fill:#1b479d;fill-opacity:1;stroke:none"
     id="rect3898-1"
     width="150.00003"
     height="150.22704"
     x="0.00012097217"
     y="-6.0058596e-008" />
  <path
     inkscape:connector-curvature="0"
     d="m 8.630682,91.549949 c 0,0 -8.628857,-13.66235 -8.485027,-17.68914 0.14381,-4.02681 9.060297,-18.12059 9.060297,-18.12059 l 0.21571,-15.74767 6.83118,0.21572 0.28764,3.52345 18.98348,-29.2662 6.90307,3.45155 -20.70926,32.14247 51.3417,-45.948641 5.03349,4.24252 -50.76642,47.099161 83.124618,-43.57571 3.16392,5.89638 -82.980798,44.29479 107.141588,-25.88657 1.58196,6.32783 -106.278718,27.39662 116.777158,1.22242 0,6.75926 -116.201898,-0.86288 106.278718,29.625741 -1.51004,6.32783 -108.579758,-27.971891 84.347048,47.530611 -3.88297,6.0402 -83.843708,-46.667721 49.90353,49.544011 -4.60206,4.88968 -50.62259,-48.896831 18.33631,33.508701 -6.11212,3.52345 -17.54533,-29.91335 -0.14381,2.94819 -7.55025,0 0.50334,-15.963391 z"
     style="fill:#e9bf1e;stroke:#000000;stroke-width:0.28762847"
     id="path2030-94" />
</svg>
