<?xml version="1.0" encoding="utf-8"?>
<!-- Uploaded to: SVG Repo, www.svgrepo.com, Generator: SVG Repo Mixer Tools -->
<svg width="800px" height="800px" viewBox="0 0 1024 1024" class="icon"  version="1.1" xmlns="http://www.w3.org/2000/svg"><path d="M512 512m-448 0a448 448 0 1 0 896 0 448 448 0 1 0-896 0Z" fill="#9C27B0" /><path d="M411.733333 599.466667c6.4 27.733333 4.266667 87.466667 98.133334 87.466666 19.2 0 102.4 4.266667 100.266666-153.6v-34.133333c0-142.933333-68.266667-153.6-102.4-153.6-49.066667 0-89.6 12.8-96 91.733333h-102.4c2.133333-25.6 17.066667-174.933333 198.4-174.933333 89.6 0 206.933333 53.333333 206.933334 238.933333V533.333333c0 204.8-138.666667 238.933333-204.8 238.933334-78.933333 0-185.6-34.133333-198.4-172.8h100.266666z" fill="#E1BEE7" /></svg>