<svg xmlns="http://www.w3.org/2000/svg" width="1428" height="420" viewBox="0 0 1428 420"><path fill="#F00" d="M1075.544 420L1428 0H0l352.456 420z"/><g fill="#FFF"><path d="M765.947 147.002h-19.602V71.598h19.602v75.404zm8.938-75.404h19.602l35.902 46.103h.199V71.598h19.602v75.405h-19.602L794.686 100.8h-.199v46.203h-19.602V71.598zm117.871 75.404h-19.601V88.199h-16.201V71.598h52.003v16.601h-16.201v58.803zm41.758-58.803V100.8h22.102v16.601h-22.102v13h23.303v16.601h-42.903V71.598h42.903v16.601h-23.303zm93.082 58.803h-24.401L984.693 118h-.2v29.002h-19.601V71.598h29.302c14.9 0 26.201 7.101 26.201 23.202 0 10.4-5.801 19.401-16.501 21.301l23.702 30.901zM984.493 105.4h1.9c6.4 0 13.601-1.2 13.601-9.4 0-8.201-7.2-9.401-13.601-9.401h-1.9V105.4zm48.798-33.802h19.602l35.901 46.103h.2V71.598h19.602v75.405h-19.602l-35.902-46.203h-.199v46.203h-19.602V71.598zm104.092 16.601V100.8h22.101v16.601h-22.101v13h23.301v16.601h-42.902V71.598h42.902v16.601h-23.301zm65.449 58.803h-19.602V88.199h-16.201V71.598h52.004v16.601h-16.201v58.803zm-426.484 100h-19.602v-58.803h-16.201v-16.601h52.004v16.601h-16.201v58.803zm71.56-46.302v-29.102h19.601v75.404h-19.601v-30.901h-28.303v30.901h-19.601v-75.404h19.601V200.7h28.303zm48.858 46.302h-19.602v-75.404h19.602v75.404zm9.937-75.404h19.602l35.902 46.104h.199v-46.104h19.602v75.404h-19.602L926.504 200.8h-.199v46.202h-19.602v-75.404zm162.055 33.302c-.2 11-1.001 20.401-7.701 29.801-7.4 10.301-18.501 14.801-31.102 14.801-23.701 0-40.202-16.1-40.202-39.802 0-24.501 16.601-40.603 40.902-40.603 15.501 0 27.501 7 34.002 21.101L1046.056 198c-2.7-7.201-8.4-12.001-16.301-12.001-12.9 0-19.602 12.301-19.602 23.802 0 11.701 7.001 23.602 19.901 23.602 8.501 0 15.001-4.4 15.801-13.102h-16.001V204.9h38.904zm47.007-13.901c-3.6-3-8.2-5-13.001-5-3.6 0-8.4 2.1-8.4 6.301 0 4.4 5.301 6.1 8.701 7.2l5 1.5c10.501 3.1 18.601 8.401 18.601 20.602 0 7.5-1.8 15.201-7.8 20.301-5.9 5-13.801 7.1-21.401 7.1-9.501 0-18.802-3.199-26.502-8.6l8.4-15.801c4.9 4.301 10.701 7.801 17.401 7.801 4.601 0 9.501-2.301 9.501-7.602 0-5.5-7.701-7.4-11.901-8.6-12.301-3.501-20.401-6.701-20.401-21.302 0-15.301 10.901-25.302 26.002-25.302 7.601 0 16.901 2.4 23.602 6.201l-7.802 15.201zm-349.818 97.2v12.6h22.102V317.4h-22.102v13.002h23.301v16.6h-42.902v-75.404h42.902V288.2h-23.301zm74.369 2.799c-3.6-3-8.199-5-13-5-3.601 0-8.4 2.102-8.4 6.301 0 4.4 5.301 6.102 8.7 7.201l5.001 1.5c10.5 3.1 18.601 8.4 18.601 20.602 0 7.5-1.8 15.201-7.8 20.301-5.9 5-13.802 7.1-21.402 7.1-9.5 0-18.801-3.199-26.502-8.6l8.401-15.801c4.899 4.299 10.7 7.801 17.401 7.801 4.6 0 9.5-2.301 9.5-7.602 0-5.5-7.7-7.4-11.9-8.6-12.301-3.5-20.401-6.701-20.401-21.303 0-15.301 10.9-25.301 26.001-25.301 7.602 0 16.901 2.4 23.602 6.201l-7.802 15.2zm17.788-19.4h30.002c16.201 0 27.402 7.5 27.402 24.801 0 17.803-9.602 25.602-26.702 25.602h-11.101v25.002h-19.602v-75.405zm19.601 34.601h3.301c7.1 0 14.101 0 14.101-9.199 0-9.502-6.501-9.602-14.101-9.602h-3.301v18.801zm44.129-12.9c.8-7.9 4-13.9 8.801-18.201 4.8-4.299 11.5-6.5 19.201-6.5 13.5 0 24.101 7.801 24.101 21.9 0 6.002-2.399 12.402-7.9 15.502 8.001 2.1 12.301 11.301 12.301 19.002 0 16.5-14.301 25-29.302 25-8.601 0-16.4-2.299-22.501-8.5-4.501-4.6-8.801-12.4-8.601-19.002h20.001c0 6.002 4.3 10.701 10.501 10.701 6 0 10.5-4 10.5-10.1 0-5.701-4.9-10.102-10.4-10.102-1.2 0-2.3.301-3.4.6v-13.1h2c5.001 0 8.602-3.102 8.602-8.301 0-4.6-3.301-7.602-7.701-7.602-5 0-8.101 3.801-8 8.701h-18.203zm118.492 37.103v16.6h-60.604l30.803-33.502c4.399-4.801 8.6-11.6 8.6-18.5 0-4.801-3.399-9.801-8.6-9.801-5.301 0-8.201 4.1-8.201 9.199 0 1 .101 2.102.3 3.201h-21.601c.6-17.301 11.601-29.002 29.401-29.002 15.801 0 29.102 10.4 29.102 26.801 0 10.801-4.5 17.102-12.2 24.102l-11.701 10.902h24.701zM575.62 147.002h-18.2V110.7h-5.9V95.699h5.9V80.298h18.2v15.401h10.301V110.7H575.62v36.302zm33.259-83.004V102.2h.199c4.201-5.601 9.301-8.201 16.401-8.201 13.001 0 19.302 8.601 19.302 21.602v31.402H626.58v-26.302c0-6-.9-12.201-8.201-12.201-7.2 0-9.5 6.201-9.5 12.201v26.302h-18.201V63.998h18.201zm98.771 60.403h-38.303c0 7.4 3.9 11.401 11.4 11.401 3.9 0 6.701-1.3 8.701-4.7h17.501c-1.399 6-5 10.4-9.7 13.301-4.701 2.9-10.501 4.3-16.401 4.3-17.001 0-29.702-9.601-29.702-27.302 0-17.101 11.701-27.402 28.402-27.402 17.801 0 28.102 11.001 28.102 28.502v1.9zm-16.9-10.501c-.9-4.9-5.4-8.101-10.301-8.101-5.301 0-9.701 2.8-10.801 8.101h21.102zm-20.018 107.5c0 17.402-14.401 27.303-30.902 27.303-16.4 0-30.902-9.801-30.902-27.303 0-17.5 14.401-27.401 30.902-27.401s30.902 9.901 30.902 27.401zm-42.603 0c0 6.502 4.301 11.502 11.701 11.502s11.701-5 11.701-11.502c0-6.3-4.301-11.6-11.701-11.6s-11.701 5.301-11.701 11.6zm69.019 25.602h-18.201V210.7h-6.4v-15.001h6.4v-6.5c0-7.1.2-12.301 5.201-18.001 4.5-5.3 11-8.2 17.9-8.2 2.801 0 5.301.5 7.801 1.8v15.701c-2.101-.9-4-1.7-6.4-1.7-4.701 0-6.301 2.8-6.301 8.601v8.3h12.701v15h-12.701v36.302zm-183.676 76.5l12.901-27.803h10.8l12.901 27.803 12.9-27.803h20.102l-26.802 51.303h-11.801l-12.7-28.102-12.701 28.102h-11.801l-26.802-51.303h20.201l12.802 27.803zm92.108-47.504c0 5.6-4.601 10.201-10.2 10.201-5.601 0-10.201-4.602-10.201-10.201s4.601-10.201 10.201-10.201c5.599 0 10.2 4.601 10.2 10.201zm-1.1 71.004h-18.201v-51.303h18.201v51.303zm30.309 0h-18.201v-36.301h-5.9v-15.002h5.9v-15.4h18.201v15.4h10.301v15.002h-10.301v36.301zm33.258-83.004v38.201h.2c4.2-5.6 9.301-8.199 16.401-8.199 13 0 19.301 8.6 19.301 21.6v31.402h-18.201v-26.301c0-6-.9-12.201-8.2-12.201-7.2 0-9.501 6.201-9.501 12.201v26.301h-18.201v-83.004h18.201z"/></g><path d="M530.019 170.212l4.627 5.516m-13.883-16.546l4.628 5.516m-13.885-16.548l4.628 5.517M502.25 137.12l4.628 5.515m-13.884-16.546l4.629 5.515m-13.885-16.547l4.628 5.516m-13.884-16.546l4.629 5.515m-13.885-16.546l4.628 5.515M455.97 81.965l4.627 5.515m-13.884-16.546l4.628 5.515m-13.884-16.547l4.628 5.516m-13.884-16.546l4.629 5.515m-22.631 258.662l-5.515 4.627m16.546-13.883l-5.516 4.627m16.547-13.885l-5.515 4.629m16.546-13.883l-5.515 4.627m16.547-13.885l-5.516 4.629m16.547-13.884l-5.516 4.628m16.547-13.884l-5.515 4.629m16.546-13.885l-5.515 4.627M498.448 239l-5.517 4.627m16.548-13.883l-5.516 4.627m16.546-13.883l-5.514 4.627m16.546-13.884l-5.516 4.628m-258.66-22.63l-4.629-5.515m13.885 16.546l-4.629-5.515m13.884 16.546l-4.628-5.516m13.884 16.547l-4.628-5.515m13.884 16.547l-4.628-5.516m13.885 16.547l-4.628-5.516m13.883 16.547l-4.627-5.518m13.885 16.549l-4.629-5.515m13.884 16.545l-4.628-5.514m13.884 16.545l-4.628-5.516m13.884 16.547l-4.628-5.516m13.884 16.547l-4.628-5.515m22.63-258.661l5.516-4.628m-16.547 13.883l5.515-4.627m-16.546 13.884l5.515-4.628m-16.547 13.884l5.516-4.628m-16.546 13.884l5.516-4.628m-16.547 13.884l5.515-4.628m-16.545 13.884l5.514-4.627m-16.546 13.884l5.516-4.628m-16.547 13.884l5.516-4.628m-16.547 13.884l5.515-4.629m-16.546 13.885l5.515-4.628m-16.547 13.884l5.516-4.628" fill="none" stroke="#999" stroke-width="21.6" stroke-miterlimit="10"/><path fill="#262626" d="M550.857 195.038L385.401 333.883 246.556 168.427 412.012 29.582z"/><path d="M369.181 314.57l8.963-7.521a2.7 2.7 0 0 0 .332-3.803l-1.157-1.379a2.702 2.702 0 0 0-3.803-.334l-8.963 7.521 4.628 5.516zm-9.256-11.031l8.963-7.52a2.702 2.702 0 0 0 .332-3.805l-1.156-1.379a2.7 2.7 0 0 0-3.804-.332l-8.963 7.52 4.628 5.516zm-9.256-11.031l8.963-7.52a2.703 2.703 0 0 0 .332-3.805l-1.157-1.379a2.7 2.7 0 0 0-3.804-.332l-8.963 7.52 4.629 5.516zm-9.256-11.031l8.963-7.52a2.7 2.7 0 0 0 .333-3.803l-1.158-1.381a2.701 2.701 0 0 0-3.803-.332l-8.963 7.521 4.628 5.515zm-9.255-11.03l8.963-7.521a2.703 2.703 0 0 0 .331-3.805l-1.157-1.377a2.7 2.7 0 0 0-3.803-.334l-8.963 7.521 4.629 5.516zm-9.258-11.031l8.963-7.521a2.701 2.701 0 0 0 .332-3.805l-1.156-1.377a2.698 2.698 0 0 0-3.803-.334l-8.963 7.52 4.627 5.517zm-9.255-11.031l8.963-7.521a2.699 2.699 0 0 0 .331-3.803l-1.156-1.379a2.7 2.7 0 0 0-3.803-.334l-8.963 7.521 4.628 5.516zm-9.257-11.031l8.963-7.521a2.699 2.699 0 0 0 .332-3.803l-1.156-1.379a2.701 2.701 0 0 0-3.804-.334l-8.963 7.521 4.628 5.516zm-9.256-11.032l8.963-7.521a2.7 2.7 0 0 0 .332-3.803l-1.157-1.379a2.698 2.698 0 0 0-3.803-.332l-8.963 7.52 4.628 5.515zm-9.256-11.031l8.963-7.52a2.703 2.703 0 0 0 .332-3.804l-1.157-1.379a2.7 2.7 0 0 0-3.804-.333l-8.963 7.52 4.629 5.516zm-9.255-11.031l8.963-7.521a2.702 2.702 0 0 0 .331-3.804l-1.157-1.378a2.7 2.7 0 0 0-3.803-.333l-8.963 7.521 4.629 5.515zm-9.256-11.031l8.963-7.521a2.702 2.702 0 0 0 .331-3.804l-1.157-1.379a2.7 2.7 0 0 0-3.803-.333l-8.963 7.521 4.629 5.516zm264.176 18.002l-7.521-8.963a2.7 2.7 0 0 0-3.804-.333l-1.379 1.157a2.702 2.702 0 0 0-.334 3.804l7.521 8.963 5.517-4.628zm-11.032 9.257l-7.521-8.963a2.699 2.699 0 0 0-3.803-.334l-1.379 1.158a2.699 2.699 0 0 0-.332 3.803l7.521 8.963 5.514-4.627zm-11.03 9.256l-7.521-8.963a2.702 2.702 0 0 0-3.805-.334l-1.379 1.158a2.698 2.698 0 0 0-.332 3.803l7.521 8.963 5.516-4.627zM498.448 239l-7.521-8.963a2.702 2.702 0 0 0-3.805-.334l-1.379 1.158a2.7 2.7 0 0 0-.333 3.803l7.521 8.963 5.517-4.627zm-11.031 9.256l-7.521-8.963a2.701 2.701 0 0 0-3.804-.334l-1.379 1.158a2.7 2.7 0 0 0-.333 3.803l7.521 8.963 5.516-4.627zm-11.031 9.256l-7.521-8.963a2.702 2.702 0 0 0-3.805-.332l-1.378 1.156a2.702 2.702 0 0 0-.333 3.805l7.521 8.963 5.516-4.629zm-11.031 9.256l-7.521-8.963a2.7 2.7 0 0 0-3.803-.332l-1.38 1.156a2.703 2.703 0 0 0-.333 3.805l7.521 8.963 5.516-4.629zm-11.031 9.255l-7.521-8.963a2.7 2.7 0 0 0-3.803-.332l-1.379 1.156a2.702 2.702 0 0 0-.334 3.805l7.521 8.963 5.516-4.629zm-11.032 9.258l-7.521-8.963a2.7 2.7 0 0 0-3.804-.334l-1.378 1.158a2.7 2.7 0 0 0-.334 3.803l7.521 8.963 5.516-4.627zm-11.031 9.254l-7.521-8.963a2.703 2.703 0 0 0-3.804-.332l-1.379 1.156a2.701 2.701 0 0 0-.333 3.805l7.521 8.963 5.516-4.629zm-11.031 9.258l-7.521-8.963a2.7 2.7 0 0 0-3.804-.334l-1.379 1.158a2.7 2.7 0 0 0-.333 3.803l7.521 8.963 5.516-4.627zm-11.031 9.256l-7.521-8.963a2.703 2.703 0 0 0-3.804-.334l-1.379 1.158a2.699 2.699 0 0 0-.332 3.803l7.521 8.963 5.515-4.627zm18.002-264.177l-8.963 7.521a2.7 2.7 0 0 0-.332 3.804l1.156 1.379a2.702 2.702 0 0 0 3.805.333l8.963-7.521-4.629-5.516zm9.256 11.03l-8.963 7.521a2.702 2.702 0 0 0-.332 3.804l1.156 1.378a2.701 2.701 0 0 0 3.805.333l8.963-7.521-4.629-5.515zm9.256 11.032l-8.963 7.521a2.7 2.7 0 0 0-.333 3.804l1.157 1.379a2.701 2.701 0 0 0 3.804.333l8.963-7.521-4.628-5.516zm9.257 11.031l-8.963 7.521a2.701 2.701 0 0 0-.334 3.804l1.158 1.379a2.7 2.7 0 0 0 3.803.332l8.963-7.521-4.627-5.515zm9.256 11.031l-8.963 7.521a2.7 2.7 0 0 0-.333 3.804l1.157 1.378a2.7 2.7 0 0 0 3.804.333l8.963-7.521-4.628-5.515zm9.256 11.031l-8.963 7.521a2.7 2.7 0 0 0-.332 3.804l1.156 1.379a2.702 2.702 0 0 0 3.805.333l8.963-7.521-4.629-5.516zm9.256 11.03l-8.963 7.521a2.701 2.701 0 0 0-.332 3.805l1.156 1.378a2.7 2.7 0 0 0 3.804.333l8.963-7.521-4.628-5.516zm9.256 11.032l-8.963 7.521a2.7 2.7 0 0 0-.332 3.804l1.156 1.378a2.702 2.702 0 0 0 3.805.333l8.963-7.521-4.629-5.515zm9.256 11.031l-8.963 7.521a2.7 2.7 0 0 0-.333 3.804l1.157 1.379a2.7 2.7 0 0 0 3.804.332l8.963-7.521-4.628-5.515zm9.256 11.03l-8.963 7.521a2.703 2.703 0 0 0-.333 3.805l1.157 1.378a2.7 2.7 0 0 0 3.804.333l8.963-7.521-4.628-5.516zm9.257 11.032l-8.963 7.521a2.7 2.7 0 0 0-.333 3.804l1.157 1.379a2.702 2.702 0 0 0 3.804.333l8.963-7.521-4.628-5.516zm9.256 11.03l-8.963 7.521a2.702 2.702 0 0 0-.334 3.805l1.158 1.378a2.699 2.699 0 0 0 3.803.333l8.963-7.521-4.627-5.516zm-264.178-18.001l7.521 8.963a2.7 2.7 0 0 0 3.803.334l1.38-1.158a2.7 2.7 0 0 0 .332-3.804l-7.521-8.963-5.515 4.628zm11.032-9.256l7.521 8.963a2.701 2.701 0 0 0 3.804.333l1.379-1.157a2.7 2.7 0 0 0 .333-3.804l-7.521-8.963-5.516 4.628zm11.031-9.256l7.521 8.963a2.7 2.7 0 0 0 3.804.333l1.379-1.157a2.701 2.701 0 0 0 .333-3.805l-7.521-8.963-5.516 4.629zm11.031-9.256l7.52 8.963a2.702 2.702 0 0 0 3.805.333l1.379-1.157a2.7 2.7 0 0 0 .332-3.804l-7.52-8.963-5.516 4.628zm11.031-9.256l7.52 8.963a2.701 2.701 0 0 0 3.805.333l1.379-1.157a2.7 2.7 0 0 0 .332-3.804l-7.52-8.963-5.516 4.628zm11.032-9.257l7.52 8.963a2.702 2.702 0 0 0 3.805.334l1.379-1.158a2.7 2.7 0 0 0 .332-3.804l-7.521-8.963-5.515 4.628zm11.03-9.256l7.521 8.963a2.702 2.702 0 0 0 3.805.333l1.378-1.157a2.7 2.7 0 0 0 .333-3.804l-7.521-8.963-5.516 4.628zm11.031-9.256l7.521 8.963a2.701 2.701 0 0 0 3.805.333l1.379-1.157a2.702 2.702 0 0 0 .332-3.804l-7.521-8.963-5.516 4.628zm11.03-9.256l7.521 8.963a2.702 2.702 0 0 0 3.805.333l1.378-1.157a2.701 2.701 0 0 0 .334-3.804l-7.521-8.963-5.517 4.628zm11.032-9.256l7.521 8.963a2.7 2.7 0 0 0 3.804.333l1.379-1.157a2.702 2.702 0 0 0 .333-3.804l-7.521-8.963-5.516 4.628zm11.031-9.257l7.521 8.963a2.7 2.7 0 0 0 3.803.334l1.38-1.158a2.7 2.7 0 0 0 .331-3.804l-7.52-8.963-5.515 4.628zm11.031-9.255l7.52 8.963a2.702 2.702 0 0 0 3.805.333l1.379-1.157a2.7 2.7 0 0 0 .333-3.804l-7.521-8.963-5.516 4.628z" fill="#2B2B2B"/><g fill="none" stroke="#999" stroke-width=".36" stroke-miterlimit="10"><path d="M534.646 175.728l-.766.643"/><path stroke-dasharray="2.1114,2.1114" d="M532.263 177.728l-6.58 5.521a2.699 2.699 0 0 1-3.803-.333l-1.158-1.378a2.702 2.702 0 0 1 .334-3.805l7.388-6.2"/><path d="M529.253 170.855l.766-.643"/></g><g fill="none" stroke="#999" stroke-width=".36" stroke-miterlimit="10"><path d="M525.391 164.698l-.766.642"/><path stroke-dasharray="2.1114,2.1114" d="M523.008 166.698l-6.58 5.521a2.7 2.7 0 0 1-3.804-.333l-1.157-1.379a2.7 2.7 0 0 1 .333-3.804l7.388-6.2"/><path d="M519.997 159.825l.766-.643"/></g><g fill="none" stroke="#999" stroke-width=".36" stroke-miterlimit="10"><path d="M516.134 153.667l-.766.642"/><path stroke-dasharray="2.1114,2.1114" d="M513.751 155.667l-6.58 5.521a2.7 2.7 0 0 1-3.804-.333l-1.157-1.378a2.703 2.703 0 0 1 .333-3.805l7.388-6.2"/><path d="M510.74 148.793l.766-.643"/></g><g fill="none" stroke="#999" stroke-width=".36" stroke-miterlimit="10"><path d="M506.878 142.635l-.766.642"/><path stroke-dasharray="2.1113,2.1113" d="M504.495 144.635l-6.58 5.521a2.7 2.7 0 0 1-3.804-.332l-1.157-1.379a2.7 2.7 0 0 1 .333-3.804l7.388-6.2"/><path d="M501.484 137.763l.766-.643"/></g><g fill="none" stroke="#999" stroke-width=".36" stroke-miterlimit="10"><path d="M497.623 131.604l-.767.643"/><path stroke-dasharray="2.1113,2.1113" d="M495.239 133.604l-6.58 5.521a2.702 2.702 0 0 1-3.805-.333l-1.156-1.378a2.7 2.7 0 0 1 .332-3.804l7.388-6.2"/><path d="M492.228 126.731l.766-.642"/></g><g fill="none" stroke="#999" stroke-width=".36" stroke-miterlimit="10"><path d="M488.366 120.573l-.766.643"/><path stroke-dasharray="2.1114,2.1114" d="M485.982 122.573l-6.58 5.521a2.7 2.7 0 0 1-3.804-.333l-1.156-1.378a2.701 2.701 0 0 1 .332-3.805l7.388-6.2"/><path d="M482.972 115.7l.766-.643"/></g><g fill="none" stroke="#999" stroke-width=".36" stroke-miterlimit="10"><path d="M479.111 109.542l-.766.643"/><path stroke-dasharray="2.1114,2.1114" d="M476.728 111.542l-6.58 5.521a2.702 2.702 0 0 1-3.805-.333l-1.156-1.379a2.7 2.7 0 0 1 .332-3.804l7.388-6.2"/><path d="M473.716 104.669l.766-.642"/></g><g fill="none" stroke="#999" stroke-width=".36" stroke-miterlimit="10"><path d="M469.854 98.511l-.766.643"/><path stroke-dasharray="2.1114,2.1114" d="M467.471 100.511l-6.58 5.521a2.7 2.7 0 0 1-3.804-.333l-1.157-1.378a2.7 2.7 0 0 1 .333-3.804l7.388-6.2"/><path d="M464.46 93.638l.766-.642"/></g><g fill="none" stroke="#999" stroke-width=".36" stroke-miterlimit="10"><path d="M460.597 87.48l-.766.643"/><path stroke-dasharray="2.1113,2.1113" d="M458.214 89.48l-6.58 5.521a2.7 2.7 0 0 1-3.803-.332l-1.158-1.379a2.701 2.701 0 0 1 .334-3.804l7.388-6.2"/><path d="M455.204 82.607l.766-.642"/></g><g fill="none" stroke="#999" stroke-width=".36" stroke-miterlimit="10"><path d="M451.341 76.449l-.766.643"/><path stroke-dasharray="2.1114,2.1114" d="M448.958 78.449l-6.58 5.521a2.701 2.701 0 0 1-3.804-.333l-1.157-1.379a2.7 2.7 0 0 1 .333-3.804l7.388-6.2"/><path d="M445.947 71.576l.766-.642"/></g><g fill="none" stroke="#999" stroke-width=".36" stroke-miterlimit="10"><path d="M442.085 65.418l-.766.643"/><path stroke-dasharray="2.1113,2.1113" d="M439.702 67.418l-6.58 5.521a2.701 2.701 0 0 1-3.805-.333l-1.156-1.378a2.702 2.702 0 0 1 .332-3.804l7.388-6.2"/><path d="M436.69 60.545l.767-.643"/></g><g fill="none" stroke="#999" stroke-width=".36" stroke-miterlimit="10"><path d="M432.83 54.387l-.767.643"/><path stroke-dasharray="2.1114,2.1114" d="M430.446 56.387l-6.58 5.521a2.702 2.702 0 0 1-3.805-.333l-1.156-1.379a2.7 2.7 0 0 1 .332-3.804l7.388-6.2"/><path d="M427.435 49.514l.766-.642"/></g><g fill="none" stroke="#999" stroke-width=".36" stroke-miterlimit="10"><path d="M404.684 317.676l-.642-.766"/><path stroke-dasharray="2.1112,2.1112" d="M402.684 315.292l-5.521-6.579a2.699 2.699 0 0 1 .332-3.803l1.379-1.158a2.703 2.703 0 0 1 3.804.334l6.199 7.389"/><path d="M409.556 312.283l.643.766"/></g><g fill="none" stroke="#999" stroke-width=".36" stroke-miterlimit="10"><path d="M415.714 308.42l-.642-.766"/><path stroke-dasharray="2.1113,2.1113" d="M413.714 306.036l-5.521-6.579a2.7 2.7 0 0 1 .333-3.803l1.379-1.158a2.7 2.7 0 0 1 3.804.334l6.199 7.388"/><path d="M420.587 303.027l.643.766"/></g><g fill="none" stroke="#999" stroke-width=".36" stroke-miterlimit="10"><path d="M426.746 299.164l-.643-.766"/><path stroke-dasharray="2.1113,2.1113" d="M424.746 296.78l-5.521-6.579a2.701 2.701 0 0 1 .333-3.805l1.379-1.156a2.703 2.703 0 0 1 3.804.332l6.199 7.388"/><path d="M431.619 293.77l.642.765"/></g><g fill="none" stroke="#999" stroke-width=".36" stroke-miterlimit="10"><path d="M437.777 289.908l-.643-.765"/><path stroke-dasharray="2.1114,2.1114" d="M435.777 287.524l-5.521-6.579a2.7 2.7 0 0 1 .334-3.803l1.378-1.158a2.7 2.7 0 0 1 3.804.334l6.2 7.389"/><path d="M442.649 284.516l.643.765"/></g><g fill="none" stroke="#999" stroke-width=".36" stroke-miterlimit="10"><path d="M448.808 280.652l-.643-.765"/><path stroke-dasharray="2.1113,2.1113" d="M446.808 278.27l-5.521-6.58a2.702 2.702 0 0 1 .334-3.805l1.379-1.156a2.7 2.7 0 0 1 3.803.332l6.2 7.389"/><path d="M453.681 275.258l.643.765"/></g><g fill="none" stroke="#999" stroke-width=".36" stroke-miterlimit="10"><path d="M459.839 271.396l-.643-.765"/><path stroke-dasharray="2.1113,2.1113" d="M457.839 269.013l-5.521-6.579a2.703 2.703 0 0 1 .333-3.805l1.38-1.156a2.7 2.7 0 0 1 3.803.332l6.2 7.389"/><path d="M464.712 266.002l.643.766"/></g><g fill="none" stroke="#999" stroke-width=".36" stroke-miterlimit="10"><path d="M470.871 262.141l-.643-.766"/><path stroke-dasharray="2.1114,2.1114" d="M468.871 259.757l-5.521-6.579a2.702 2.702 0 0 1 .333-3.805l1.378-1.156a2.702 2.702 0 0 1 3.805.332l6.2 7.389"/><path d="M475.743 256.746l.643.766"/></g><g fill="none" stroke="#999" stroke-width=".36" stroke-miterlimit="10"><path d="M481.902 252.883l-.643-.766"/><path stroke-dasharray="2.1113,2.1113" d="M479.902 250.5l-5.521-6.58a2.7 2.7 0 0 1 .333-3.803l1.379-1.158a2.701 2.701 0 0 1 3.804.334l6.2 7.388"/><path d="M486.774 247.49l.643.766"/></g><g fill="none" stroke="#999" stroke-width=".36" stroke-miterlimit="10"><path d="M492.931 243.627l-.642-.766"/><path stroke-dasharray="2.1113,2.1113" d="M490.931 241.244l-5.521-6.58a2.7 2.7 0 0 1 .333-3.803l1.379-1.158a2.702 2.702 0 0 1 3.805.334l6.199 7.388"/><path d="M497.805 238.234l.643.766"/></g><g fill="none" stroke="#999" stroke-width=".36" stroke-miterlimit="10"><path d="M503.963 234.371l-.642-.766"/><path stroke-dasharray="2.1114,2.1114" d="M501.963 231.988l-5.521-6.58a2.698 2.698 0 0 1 .332-3.803l1.379-1.158a2.702 2.702 0 0 1 3.805.334l6.199 7.388"/><path d="M508.836 228.978l.643.766"/></g><g fill="none" stroke="#999" stroke-width=".36" stroke-miterlimit="10"><path d="M514.995 225.115l-.643-.766"/><path stroke-dasharray="2.1113,2.1113" d="M512.995 222.732l-5.521-6.58a2.699 2.699 0 0 1 .332-3.803l1.379-1.158a2.699 2.699 0 0 1 3.803.334l6.2 7.388"/><path d="M519.866 219.722l.643.766"/></g><g fill="none" stroke="#999" stroke-width=".36" stroke-miterlimit="10"><path d="M526.025 215.859l-.643-.766"/><path stroke-dasharray="2.1113,2.1113" d="M524.025 213.476l-5.521-6.58a2.702 2.702 0 0 1 .334-3.804l1.379-1.157a2.7 2.7 0 0 1 3.804.333l6.199 7.388"/><path d="M530.898 210.465l.643.766"/></g><g fill="none" stroke="#999" stroke-width=".36" stroke-miterlimit="10"><path d="M262.736 187.714l.766-.643"/><path stroke-dasharray="2.1112,2.1112" d="M265.119 185.714l6.58-5.521a2.7 2.7 0 0 1 3.803.333l1.157 1.379a2.702 2.702 0 0 1-.331 3.804l-7.388 6.199"/><path d="M268.131 192.587l-.766.642"/></g><g fill="none" stroke="#999" stroke-width=".36" stroke-miterlimit="10"><path d="M271.992 198.745l.766-.643"/><path stroke-dasharray="2.1112,2.1112" d="M274.375 196.745l6.58-5.521a2.7 2.7 0 0 1 3.803.333l1.157 1.378a2.702 2.702 0 0 1-.331 3.804l-7.388 6.199"/><path d="M277.387 203.618l-.766.642"/></g><g fill="none" stroke="#999" stroke-width=".36" stroke-miterlimit="10"><path d="M281.248 209.775l.766-.642"/><path stroke-dasharray="2.1112,2.1112" d="M283.631 207.776l6.58-5.521a2.7 2.7 0 0 1 3.804.333l1.157 1.379a2.703 2.703 0 0 1-.332 3.804l-7.388 6.199"/><path d="M286.643 214.648l-.767.643"/></g><g fill="none" stroke="#999" stroke-width=".36" stroke-miterlimit="10"><path d="M290.504 220.807l.767-.643"/><path stroke-dasharray="2.1112,2.1112" d="M292.888 218.807l6.58-5.52a2.698 2.698 0 0 1 3.803.332l1.157 1.379a2.7 2.7 0 0 1-.332 3.803l-7.388 6.2"/><path d="M295.898 225.68l-.766.642"/></g><g fill="none" stroke="#999" stroke-width=".36" stroke-miterlimit="10"><path d="M299.76 231.838l.766-.643"/><path stroke-dasharray="2.1113,2.1113" d="M302.144 229.838l6.58-5.521a2.701 2.701 0 0 1 3.804.334l1.156 1.379a2.699 2.699 0 0 1-.332 3.803l-7.388 6.2"/><path d="M305.154 236.711l-.766.643"/></g><g fill="none" stroke="#999" stroke-width=".36" stroke-miterlimit="10"><path d="M309.017 242.869l.766-.642"/><path stroke-dasharray="2.1112,2.1112" d="M311.4 240.869l6.58-5.521a2.7 2.7 0 0 1 3.803.334l1.156 1.379a2.699 2.699 0 0 1-.331 3.803l-7.388 6.2"/><path d="M314.411 247.742l-.766.643"/></g><g fill="none" stroke="#999" stroke-width=".36" stroke-miterlimit="10"><path d="M318.273 253.898l.766-.642"/><path stroke-dasharray="2.1112,2.1112" d="M320.656 251.898l6.58-5.52a2.698 2.698 0 0 1 3.803.334l1.156 1.377a2.701 2.701 0 0 1-.332 3.805l-7.388 6.2"/><path d="M323.666 258.773l-.766.643"/></g><g fill="none" stroke="#999" stroke-width=".36" stroke-miterlimit="10"><path d="M327.529 264.932l.766-.643"/><path stroke-dasharray="2.1112,2.1112" d="M329.912 262.932l6.58-5.521a2.7 2.7 0 0 1 3.803.334l1.157 1.377a2.703 2.703 0 0 1-.331 3.805l-7.388 6.2"/><path d="M332.924 269.805l-.766.642"/></g><g fill="none" stroke="#999" stroke-width=".36" stroke-miterlimit="10"><path d="M336.785 275.963l.766-.643"/><path stroke-dasharray="2.1112,2.1112" d="M339.168 273.963l6.58-5.521a2.701 2.701 0 0 1 3.803.332l1.158 1.381a2.7 2.7 0 0 1-.333 3.803l-7.388 6.198"/><path d="M342.179 280.834l-.766.643"/></g><g fill="none" stroke="#999" stroke-width=".36" stroke-miterlimit="10"><path d="M346.041 286.992l.766-.642"/><path stroke-dasharray="2.1112,2.1112" d="M348.424 284.992l6.58-5.52a2.7 2.7 0 0 1 3.804.332l1.157 1.379a2.703 2.703 0 0 1-.332 3.805l-7.388 6.198"/><path d="M351.436 291.865l-.767.643"/></g><g fill="none" stroke="#999" stroke-width=".36" stroke-miterlimit="10"><path d="M355.297 298.023l.766-.642"/><path stroke-dasharray="2.1112,2.1112" d="M357.681 296.023l6.58-5.52a2.7 2.7 0 0 1 3.804.332l1.156 1.379a2.702 2.702 0 0 1-.332 3.805l-7.388 6.198"/><path d="M360.691 302.896l-.766.643"/></g><g fill="none" stroke="#999" stroke-width=".36" stroke-miterlimit="10"><path d="M364.553 309.055l.766-.643"/><path stroke-dasharray="2.1112,2.1112" d="M366.937 307.055l6.58-5.521a2.702 2.702 0 0 1 3.803.334l1.157 1.379a2.7 2.7 0 0 1-.332 3.803l-7.388 6.2"/><path d="M369.947 313.928l-.766.642"/></g><g fill="none" stroke="#999" stroke-width=".36" stroke-miterlimit="10"><path d="M392.699 45.766l.642.766"/><path stroke-dasharray="2.1113,2.1113" d="M394.699 48.149l5.521 6.58a2.7 2.7 0 0 1-.333 3.804l-1.379 1.157a2.703 2.703 0 0 1-3.805-.333l-6.198-7.388"/><path d="M387.826 51.16l-.643-.766"/></g><g fill="none" stroke="#999" stroke-width=".36" stroke-miterlimit="10"><path d="M381.667 55.022l.643.766"/><path stroke-dasharray="2.1113,2.1113" d="M383.667 57.406l5.52 6.579a2.7 2.7 0 0 1-.331 3.804l-1.38 1.158a2.7 2.7 0 0 1-3.803-.334l-6.2-7.388"/><path d="M376.795 60.416l-.643-.767"/></g><g fill="none" stroke="#999" stroke-width=".36" stroke-miterlimit="10"><path d="M370.636 64.278l.643.766"/><path stroke-dasharray="2.1114,2.1114" d="M372.636 66.661l5.521 6.58a2.702 2.702 0 0 1-.333 3.804l-1.379 1.157a2.702 2.702 0 0 1-3.804-.333l-6.2-7.388"/><path d="M365.764 69.672l-.643-.766"/></g><g fill="none" stroke="#999" stroke-width=".36" stroke-miterlimit="10"><path d="M359.605 73.534l.643.766"/><path stroke-dasharray="2.1114,2.1114" d="M361.605 75.917l5.521 6.58a2.701 2.701 0 0 1-.334 3.804l-1.378 1.157a2.703 2.703 0 0 1-3.805-.333l-6.199-7.388"/><path d="M354.732 78.928l-.643-.766"/></g><g fill="none" stroke="#999" stroke-width=".36" stroke-miterlimit="10"><path d="M348.575 82.79l.642.766"/><path stroke-dasharray="2.1114,2.1114" d="M350.575 85.173l5.521 6.58a2.702 2.702 0 0 1-.332 3.804l-1.379 1.157a2.703 2.703 0 0 1-3.805-.333l-6.199-7.388"/><path d="M343.702 88.184l-.643-.766"/></g><g fill="none" stroke="#999" stroke-width=".36" stroke-miterlimit="10"><path d="M337.543 92.046l.643.766"/><path stroke-dasharray="2.1113,2.1113" d="M339.543 94.43l5.521 6.58a2.7 2.7 0 0 1-.333 3.804l-1.378 1.157a2.703 2.703 0 0 1-3.805-.333l-6.199-7.388"/><path d="M332.67 97.44l-.642-.766"/></g><g fill="none" stroke="#999" stroke-width=".36" stroke-miterlimit="10"><path d="M326.512 101.303l.643.766"/><path stroke-dasharray="2.1113,2.1113" d="M328.512 103.686l5.521 6.58a2.7 2.7 0 0 1-.332 3.804l-1.379 1.158a2.702 2.702 0 0 1-3.805-.334l-6.198-7.388"/><path d="M321.64 106.696l-.642-.766"/></g><g fill="none" stroke="#999" stroke-width=".36" stroke-miterlimit="10"><path d="M315.482 110.559l.643.766"/><path stroke-dasharray="2.1113,2.1113" d="M317.481 112.942l5.52 6.579a2.7 2.7 0 0 1-.332 3.804l-1.379 1.157a2.701 2.701 0 0 1-3.805-.333l-6.198-7.388"/><path d="M310.609 115.953l-.643-.766"/></g><g fill="none" stroke="#999" stroke-width=".36" stroke-miterlimit="10"><path d="M304.451 119.815l.642.766"/><path stroke-dasharray="2.1113,2.1113" d="M306.45 122.199l5.52 6.579a2.699 2.699 0 0 1-.332 3.804l-1.379 1.157a2.703 2.703 0 0 1-3.805-.333l-6.198-7.388"/><path d="M299.578 125.209l-.643-.766"/></g><g fill="none" stroke="#999" stroke-width=".36" stroke-miterlimit="10"><path d="M293.419 129.07l.643.766"/><path stroke-dasharray="2.1114,2.1114" d="M295.419 131.454l5.521 6.58a2.701 2.701 0 0 1-.333 3.805l-1.379 1.157a2.7 2.7 0 0 1-3.804-.333l-6.199-7.388"/><path d="M288.546 134.465l-.642-.766"/></g><g fill="none" stroke="#999" stroke-width=".36" stroke-miterlimit="10"><path d="M282.388 138.327l.643.766"/><path stroke-dasharray="2.1113,2.1113" d="M284.388 140.71l5.521 6.58a2.7 2.7 0 0 1-.333 3.804l-1.379 1.157a2.701 2.701 0 0 1-3.804-.333l-6.199-7.388"/><path d="M277.515 143.721l-.642-.766"/></g><g fill="none" stroke="#999" stroke-width=".36" stroke-miterlimit="10"><path d="M271.357 147.583l.643.767"/><path stroke-dasharray="2.1113,2.1113" d="M273.357 149.967l5.521 6.58a2.7 2.7 0 0 1-.332 3.804l-1.38 1.158a2.7 2.7 0 0 1-3.803-.334l-6.2-7.388"/><path d="M266.484 152.977l-.643-.766"/></g><path fill="#2B2B2B" d="M296.589 180.455l90.248 107.553a3.598 3.598 0 0 0 5.072.443l113.067-94.875a3.597 3.597 0 0 0 .443-5.072L410.544 75.436a3.598 3.598 0 0 0-5.071-.444L297.919 165.24l-1.33 15.215z"/><g fill="none" stroke="#999" stroke-width=".36" stroke-miterlimit="10"><path d="M298.686 164.597l-.767.642-.086.996"/><path stroke-dasharray="2.0007,2.0007" d="M297.658 168.229l-1.069 12.227 90.248 107.553a3.598 3.598 0 0 0 5.072.443l113.067-94.875a3.597 3.597 0 0 0 .443-5.072L410.544 75.436a3.598 3.598 0 0 0-5.071-.444l-106.021 88.962"/></g><circle fill="#999" cx="293.451" cy="172.514" r="8.1"/><path fill="#979797" d="M402.197 260.928a1.498 1.498 0 0 1 .188-2.139l4.018-3.371c3.076-2.582 6.322-2.607 8.542.037l.031.037c2.473 2.947 1.265 6.311-1.628 8.736l-2.606 2.188 2.934 3.496a1.486 1.486 0 0 1-.189 2.105c-.653.547-1.589.469-2.122-.166l-9.168-10.923zm9.476 1.154c1.745-1.465 2.151-3.191 1.004-4.561l-.032-.037c-1.292-1.541-2.938-1.26-4.669.191l-2.682 2.25 3.697 4.406 2.682-2.249zm14.014-2.332c-1.832-.16-3.578-1.027-5.799-3.674l-.031-.037c-3.371-4.018-4.089-8.756-.372-11.875 1.352-1.135 2.721-1.678 4.072-1.82.545-.072 1.024.039 1.418.51.505.602.392 1.494-.212 2-.205.172-.475.27-.725.318-1.104.127-1.982.416-2.867 1.156-1.949 1.637-1.555 4.314.348 6.812.125-1.262.492-2.652 2.049-3.957 2.535-2.129 5.838-2.342 8.04.283l.031.037c2.19 2.611 1.632 6.248-1.13 8.564-1.611 1.353-3.199 1.822-4.822 1.683zm3.729-8.215l-.031-.037c-1.104-1.314-2.974-1.406-4.605-.037-1.636 1.373-1.783 3.287-.73 4.541l.032.039c1.119 1.334 3.058 1.432 4.688.062 1.632-1.369 1.778-3.216.646-4.568zm20.671-14.031l1.151-6.822c.53-3.033.478-4.43-.513-5.609-1.09-1.299-2.639-1.273-3.84-.266-1.051.881-1.373 1.984-1.361 3.639-.01.326-.133.717-.51 1.033a1.37 1.37 0 0 1-1.932-.168 1.51 1.51 0 0 1-.334-.936c-.049-2.23.51-4.041 2.572-5.771 2.573-2.16 5.656-2.066 7.627.283l.031.037c1.73 2.062 1.588 4.102.852 7.949l-.814 4.521 5.332-4.475a1.32 1.32 0 0 1 1.862.162 1.316 1.316 0 0 1-.163 1.863l-7.451 6.252c-.714.6-1.58.629-2.148-.051-.374-.446-.488-.995-.361-1.641zm14.243-9.336c-.467.014-.909-.131-1.224-.504-.503-.602-.422-1.533.176-2.033.284-.238.551-.34.866-.348 1.514-.021 2.836-.984 3.695-2.039 1.227-1.502 1.49-2.752.324-4.143l-.032-.037c-1.134-1.352-3.358-1.715-4.952-.379-1.276 1.072-1.518 2.041-1.873 2.34-.357.301-.749.402-1.467.463-.542.041-.957-.189-1.303-.633l-3.281-4.48c-.465-.631-.377-1.445.188-1.918l5.947-4.99a1.362 1.362 0 0 1 1.9.167c.473.563.381 1.407-.183 1.88l-4.934 4.139 1.964 2.768c.433-.742.889-1.379 1.771-2.121 2.57-2.156 6.119-2.006 8.447.77l.032.037c1.884 2.246 1.609 5.342-.884 8.049-1.632 1.77-3.414 2.944-5.177 3.012zm12.752-10.699c-.469.008-.908-.133-1.223-.508a1.458 1.458 0 0 1 .178-2.033c.279-.234.549-.338.864-.346 1.516-.023 2.837-.986 3.697-2.041 1.224-1.5 1.489-2.752.324-4.141l-.032-.039c-1.135-1.352-3.357-1.715-4.952-.377-1.276 1.072-1.519 2.042-1.876 2.34-.359.302-.751.404-1.466.464-.543.038-.957-.188-1.3-.636l-3.283-4.479c-.464-.631-.376-1.445.184-1.915l5.951-4.994a1.357 1.357 0 0 1 1.896.17c.471.561.382 1.407-.179 1.877l-4.938 4.144 1.969 2.763c.433-.742.889-1.381 1.771-2.123 2.569-2.156 6.119-2.005 8.449.771l.031.037c1.885 2.246 1.607 5.343-.885 8.048-1.632 1.772-3.42 2.945-5.18 3.018z"/><path fill="#989898" d="M446.023 244.715a1.47 1.47 0 0 1-1.826.055l-6.711-4.979 3.738 7.473a1.485 1.485 0 0 1-.377 1.795 1.476 1.476 0 0 1-1.826.055l-11.686-8.664c-.652-.49-.789-1.412-.303-2.068s1.41-.791 2.066-.305l6.708 4.977-3.735-7.471a1.487 1.487 0 0 1 .374-1.797 1.476 1.476 0 0 1 1.829-.053l6.709 4.977-3.734-7.471a1.48 1.48 0 0 1 .658-1.982 1.475 1.475 0 0 1 1.982.658l6.508 13.008c.306.61.152 1.35-.374 1.792z"/><path fill="#979797" d="M431.215 218.174l-.032-.039c-3.148-3.752-3.413-8.716.039-11.613 3.438-2.884 8.227-1.78 11.375 1.972l.031.037c3.148 3.75 3.412 8.715-.04 11.611s-8.226 1.782-11.373-1.968zm9.066-7.608l-.033-.037c-2.172-2.59-5.288-3.59-7.312-1.891-2.025 1.699-1.594 4.852.598 7.461l.031.039c2.171 2.586 5.266 3.605 7.312 1.889 2.046-1.718 1.56-4.89-.596-7.461zm23.166-10.294c-1.833-.16-3.581-1.025-5.8-3.67l-.031-.037c-3.372-4.018-4.089-8.759-.372-11.877 1.352-1.135 2.719-1.67 4.073-1.815.544-.078 1.022.036 1.415.504.506.603.393 1.498-.209 2.002a1.555 1.555 0 0 1-.727.315c-1.105.13-1.98.421-2.862 1.161-1.952 1.638-1.563 4.316.342 6.811.129-1.257.494-2.653 2.051-3.959 2.531-2.125 5.839-2.339 8.043.288l.032.038c2.188 2.608 1.626 6.248-1.133 8.562-1.615 1.355-3.2 1.822-4.822 1.677zm3.722-8.208l-.031-.038c-1.104-1.314-2.969-1.411-4.604-.038-1.632 1.369-1.78 3.285-.726 4.543l.033.038c1.117 1.333 3.055 1.432 4.688.061 1.633-1.37 1.775-3.213.64-4.566z"/><path fill="#989898" d="M402.253 243.148a5.01 5.01 0 0 0-1.772.129c.333-1.227.22-2.564-.914-3.916l-.031-.037c-1.7-2.025-4.743-1.998-7.463.283-1.842 1.547-2.497 3.281-2.576 5.199-.033.344.074.738.324 1.035a1.376 1.376 0 0 0 1.952.158c.34-.283.433-.59.463-.936.104-1.363.493-2.461 1.545-3.344 1.406-1.18 2.883-1.17 3.75-.137l.032.039c.735.875.69 2.008-.081 3.068a13.404 13.404 0 0 0-1.616 1.311c-.584.57-.6 1.504-.026 2.088.567.588 1.51.596 2.089.027.747-.729 2.706-2.188 3.966-2.033.267.033.616.143.979.729.317.512.394 1.008.231 1.568-.584 2.125-4.104 4.342-5.291 4.953a1.482 1.482 0 0 0-.641 1.988 1.48 1.48 0 0 0 1.99.643 20.681 20.681 0 0 0 3.572-2.381c1.382-1.16 2.738-2.676 3.221-4.41.377-1.355.18-2.705-.572-3.918-.953-1.539-2.224-1.994-3.131-2.106z"/><path fill="#979797" d="M410.349 243.166l1.157-6.822c.522-3.033.474-4.428-.519-5.609-1.086-1.295-2.639-1.273-3.84-.268-1.05.883-1.371 1.986-1.361 3.639-.01.33-.133.719-.507 1.031a1.369 1.369 0 0 1-1.932-.168 1.518 1.518 0 0 1-.337-.932c-.049-2.234.51-4.041 2.576-5.775 2.571-2.158 5.654-2.059 7.623.285l.031.039c1.73 2.062 1.588 4.102.852 7.949l-.811 4.518 5.328-4.471a1.318 1.318 0 0 1 1.865.166 1.318 1.318 0 0 1-.162 1.863l-7.449 6.25c-.713.598-1.586.627-2.152-.049-.378-.451-.489-1-.362-1.646zm12.684-10.643l1.152-6.818c.523-3.033.475-4.428-.519-5.609-1.087-1.295-2.638-1.275-3.839-.268-1.051.881-1.373 1.986-1.359 3.637a1.378 1.378 0 0 1-.507 1.031 1.371 1.371 0 0 1-1.934-.168 1.513 1.513 0 0 1-.337-.93c-.049-2.234.509-4.041 2.576-5.775 2.57-2.158 5.658-2.062 7.626.283l.032.037c1.73 2.062 1.583 4.105.848 7.953l-.812 4.518 5.329-4.473a1.318 1.318 0 0 1 1.865.168c.471.561.4 1.389-.162 1.861l-7.449 6.252c-.713.598-1.586.625-2.152-.049-.378-.45-.489-.999-.358-1.65z"/><path fill="#989898" d="M456.94 204.016l-1.669 1.401-8.643-10.299a1.481 1.481 0 0 0-1.584-.455 1.47 1.47 0 0 0-1.021 1.298l-.436 5.827a1.476 1.476 0 0 0 2.942.222l.167-2.208 6.307 7.516-1.994 1.672a1.478 1.478 0 0 0-.182 2.08c.524.625 1.459.71 2.084.186l5.93-4.976a1.48 1.48 0 0 0 .179-2.084 1.477 1.477 0 0 0-2.08-.18z"/><g><path fill="#979797" d="M406.348 212.127c-.505-.602-.425-1.496.155-1.984l5.855-4.913a1.417 1.417 0 0 1 1.984.188c.488.582.406 1.48-.175 1.968l-5.855 4.913c-.58.488-1.476.41-1.964-.172zm-60.482 58.557l-9.071-10.811a1.497 1.497 0 0 1 .188-2.141l6.948-5.83a1.358 1.358 0 0 1 1.898.166 1.344 1.344 0 0 1-.167 1.898l-5.803 4.867 2.865 3.414 4.957-4.158a1.363 1.363 0 0 1 1.914.182 1.34 1.34 0 0 1-.18 1.885l-4.957 4.16 2.957 3.523 5.898-4.949a1.36 1.36 0 0 1 1.897.17 1.344 1.344 0 0 1-.162 1.898l-7.044 5.912a1.495 1.495 0 0 1-2.138-.186zm11.973-10.563a1.405 1.405 0 0 1-1.189-.506c-.504-.6-.41-1.477.191-1.982.319-.268.602-.346.848-.359 1.812-.051 3.387-.537 4.814-1.734 1.424-1.197 1.757-2.631.938-3.607l-.032-.037c-.785-.938-1.739-1-4.653.48-3.36 1.674-5.628 2.168-7.66-.254l-.032-.037c-1.889-2.252-1.318-5.383 1.289-7.57 1.652-1.387 3.346-2.072 5.193-2.277.385-.072.898.043 1.275.492a1.404 1.404 0 0 1-.188 1.986 1.488 1.488 0 0 1-.747.334c-1.562.195-2.82.676-3.854 1.543-1.35 1.133-1.557 2.49-.833 3.352l.031.037c.851 1.014 1.829.959 4.866-.566 3.346-1.654 5.605-1.857 7.432.318l.031.037c2.066 2.461 1.361 5.547-1.401 7.863-1.778 1.493-3.94 2.346-6.319 2.487zm3.727-21.035a1.495 1.495 0 0 1 .188-2.139l4.018-3.371c3.076-2.582 6.32-2.605 8.539.039l.031.037c2.473 2.947 1.266 6.311-1.625 8.736l-2.609 2.189 2.932 3.492a1.483 1.483 0 0 1-.186 2.105c-.656.551-1.588.469-2.123-.168l-9.165-10.92zm9.476 1.154c1.745-1.465 2.15-3.191 1.002-4.561l-.031-.037c-1.292-1.539-2.944-1.254-4.668.191l-2.684 2.252 3.697 4.406 2.684-2.251zm25.314-13.75l1.158-6.822c.522-3.033.474-4.428-.519-5.609-1.087-1.295-2.639-1.273-3.84-.266-1.051.881-1.371 1.984-1.361 3.637-.01.33-.133.719-.508 1.031a1.369 1.369 0 0 1-1.932-.168 1.516 1.516 0 0 1-.335-.93c-.05-2.236.509-4.043 2.575-5.777 2.571-2.157 5.656-2.057 7.623.286l.031.038c1.73 2.062 1.588 4.102.852 7.949l-.812 4.518 5.329-4.471a1.318 1.318 0 0 1 1.865.166 1.318 1.318 0 0 1-.161 1.863l-7.45 6.252c-.713.598-1.587.623-2.153-.051-.377-.45-.488-.999-.362-1.646zm17.058-30.908a1.496 1.496 0 0 1 .188-2.14l2.117-1.776c4.126-3.462 9.357-3.024 12.457.67l.033.038c3.104 3.699 2.659 8.967-1.467 12.429l-2.117 1.776a1.498 1.498 0 0 1-2.14-.187l-9.071-10.81zm11.563 7.118c2.758-2.314 2.997-5.682.839-8.254l-.031-.038c-2.156-2.569-5.547-2.956-8.305-.642l-.975.818 7.497 8.934.975-.818zm27.438-39.844a1.498 1.498 0 0 1 .189-2.142l2.116-1.776c4.125-3.462 9.357-3.024 12.457.671l.033.038c3.104 3.699 2.658 8.966-1.467 12.428l-2.116 1.776a1.499 1.499 0 0 1-2.142-.185l-9.07-10.81zm11.564 7.117c2.759-2.314 2.997-5.681.839-8.254l-.031-.038c-2.156-2.569-5.546-2.957-8.305-.642l-.975.818 7.497 8.934.975-.818zm-33.854 20.857l-.031-.038c-3.147-3.751-3.41-8.712.043-11.609 3.436-2.884 8.229-1.786 11.375 1.964l.031.038c3.15 3.754 3.41 8.72-.039 11.613-3.457 2.901-8.229 1.786-11.379-1.968zm9.065-7.607l-.031-.038c-2.171-2.587-5.281-3.591-7.308-1.891-2.029 1.703-1.59 4.85.597 7.457l.032.038c2.174 2.591 5.269 3.61 7.31 1.898 2.046-1.717 1.559-4.891-.6-7.464zm49.126-32.07c-1.832-.161-3.58-1.025-5.805-3.676l-.027-.034c-3.371-4.017-4.088-8.757-.371-11.875 1.354-1.135 2.721-1.677 4.072-1.82.546-.072 1.023.041 1.416.509.502.599.393 1.496-.209 2a1.595 1.595 0 0 1-.726.317c-1.106.129-1.984.417-2.866 1.157-1.949 1.637-1.558 4.317.346 6.814.125-1.261.494-2.653 2.051-3.959 2.531-2.124 5.838-2.341 8.04.284l.031.038c2.19 2.611 1.628 6.25-1.131 8.564-1.612 1.353-3.204 1.819-4.821 1.681zm3.726-8.212l-.031-.038c-1.104-1.313-2.972-1.408-4.607-.035-1.633 1.369-1.781 3.284-.729 4.54l.031.037c1.12 1.335 3.057 1.435 4.691.063 1.633-1.369 1.778-3.216.645-4.567z"/><path fill="#989898" d="M388.23 226.434a4.983 4.983 0 0 0-1.777.125c.338-1.221.22-2.564-.912-3.912l-.031-.037c-1.701-2.029-4.744-2-7.464.281-1.842 1.547-2.498 3.279-2.575 5.199-.031.348.073.736.326 1.039.488.582 1.35.656 1.949.154.34-.285.434-.588.467-.934.1-1.367.492-2.459 1.545-3.342 1.405-1.18 2.881-1.172 3.744-.143l.033.037c.736.879.693 2.014-.076 3.074-.871.6-1.48 1.17-1.621 1.307a1.479 1.479 0 0 0-.023 2.092c.566.588 1.51.596 2.088.027.75-.727 2.704-2.191 3.967-2.033.264.029.617.145.979.729.316.508.392 1.006.234 1.57-.59 2.117-4.108 4.336-5.293 4.951a1.482 1.482 0 0 0-.641 1.99 1.472 1.472 0 0 0 1.986.639 20.457 20.457 0 0 0 3.572-2.383c1.382-1.16 2.739-2.676 3.225-4.404.377-1.357.177-2.709-.572-3.92-.957-1.544-2.23-1.999-3.13-2.106zm68.792-46.626a1.485 1.485 0 0 1-1.841.048l-6.855-5.162 3.888 7.652c.31.611.16 1.362-.367 1.805-.524.44-1.29.458-1.839.045l-11.952-8.988a1.48 1.48 0 0 1 1.776-2.363l6.857 5.16-3.887-7.651a1.48 1.48 0 0 1 .367-1.805 1.483 1.483 0 0 1 1.838-.046l6.857 5.159-3.887-7.651a1.475 1.475 0 0 1 .646-1.985 1.473 1.473 0 0 1 1.986.648l6.778 13.33a1.48 1.48 0 0 1-.365 1.804zm28.513-25.285l-2.811-.32c-.166-1.893-.992-3.84-2.42-5.542l-.032-.038c-3.146-3.75-7.937-4.85-11.371-1.968-3.452 2.897-3.19 7.859-.042 11.61l.031.038c3.15 3.754 7.922 4.87 11.374 1.973a6.851 6.851 0 0 0 2.143-3.135l2.79.32a1.473 1.473 0 0 0 1.636-1.299 1.478 1.478 0 0 0-1.298-1.639zm-6.981 3.636c-2.047 1.718-5.141.699-7.314-1.892l-.033-.038c-2.186-2.606-2.619-5.759-.595-7.458 2.026-1.7 5.139-.699 7.31 1.888l.031.038c.842 1.001 1.424 2.089 1.703 3.152l-2.867-.332a1.477 1.477 0 1 0-.338 2.935l3.1.359a3.59 3.59 0 0 1-.997 1.348z"/></g><g fill="#999"><path d="M356.644 129.697c.276-.358.642-.634.977-.943a20.636 20.636 0 0 1 2.348-1.997c5.729-4.473 12.811-7.201 20.074-7.71 7.143-.525 14.431 1.073 20.698 4.561a37.525 37.525 0 0 1 12.421 11.099c-.197.463-.506.874-.75 1.314-.227.34-.391.735-.676 1.029-6.302-3.799-13.273-6.485-20.501-7.838-10.724-2.038-21.974-1.182-32.229 2.512-.445.151-.873.348-1.327.474-.154-.041-.151-.245-.22-.368-.258-.714-.569-1.413-.815-2.133"/><path d="M348.199 142.539c.109-.253.168-.564.42-.722a56.895 56.895 0 0 1 25.605-8.965 57.414 57.414 0 0 1 20.594 1.745 57.396 57.396 0 0 1 23.525 12.902c.308.308.737.562.871.994.438 2.053.707 4.142.794 6.236.019.865.073 1.728-.003 2.59-.22.285-.536.487-.812.715-1.354 1.091-2.684 2.209-4.056 3.284-2.253-2.714-4.769-5.214-7.571-7.357a45.615 45.615 0 0 0-19.165-8.646c-7.118-1.391-14.566-1.013-21.503 1.053a45.254 45.254 0 0 0-16.71 9.16c-1.347-1.568-2.716-3.126-4.063-4.697-.09-.084-.056-.212-.045-.319a37.469 37.469 0 0 1 2.119-7.973"/><path d="M338.985 152.526c.005-.104.044-.206.073-.306 1.117.084 2.229.186 3.342.298.029.503-.051 1.003-.059 1.505-.363 7.19 1.247 14.472 4.598 20.857 1.266 2.41 2.752 4.703 4.489 6.799.422.641 1.001 1.144 1.485 1.736a40.808 40.808 0 0 0 19.73 11.984 40.498 40.498 0 0 0 20.812-.029 40.623 40.623 0 0 0 15.215-7.81 40.468 40.468 0 0 0 9.671-11.626 40.288 40.288 0 0 0 4.757-14.556c.067-.543.102-1.088.2-1.628 1.133.088 2.266.18 3.394.31-.616 7.601-3.304 15.008-7.645 21.256a43.73 43.73 0 0 1-10.543 10.702 43.766 43.766 0 0 1-15.962 7.124 43.88 43.88 0 0 1-19.611-.12 44.286 44.286 0 0 1-20.993-11.659 44.251 44.251 0 0 1-9.736-14.516 44.178 44.178 0 0 1-3.217-20.321"/><path d="M352.377 159.912c1.232-1.539 2.813-2.749 4.428-3.847 6.55-4.501 14.443-7.013 22.403-7.124 7.365-.122 14.756 1.812 21.137 5.523 5.605 3.245 10.439 7.829 13.947 13.285.781 1.198 1.477 2.449 2.144 3.717.085.186.228.393.1.587a36.94 36.94 0 0 1-3.455 5.892c-.19.252-.346.583-.683.651-1.68.557-3.327 1.198-5.01 1.719a29.741 29.741 0 0 0-3.809-7.313 29.196 29.196 0 0 0-18.336-11.703 29.218 29.218 0 0 0-10.811.006 29 29 0 0 0-10.879 4.511c-.598.413-1.201.822-1.733 1.314-.703.638-.912 1.738-.506 2.59a2.27 2.27 0 0 0 1.487 1.261c.685.201 1.457.02 2.006-.429a24.417 24.417 0 0 1 10.025-4.668 24.513 24.513 0 0 1 10.085-.004 24.694 24.694 0 0 1 9.964 4.589c5.092 3.888 8.527 9.844 9.357 16.179-1.947 1.422-4.084 2.572-6.273 3.566-.42.221-.899.127-1.35.129-1.262-.04-2.518-.06-3.777-.095-.174.025-.245-.146-.221-.293a12.59 12.59 0 0 0-3.229-8.489c-2.363-2.715-5.967-4.299-9.555-4.254a12.644 12.644 0 0 0-7.973 2.896 14.008 14.008 0 0 1-8.492 2.806c-3.775.007-7.525-1.603-10.127-4.346-1.094-1.49-2.141-3.022-2.995-4.664-1.155-2.864-1.292-6.112-.433-9.066a14.203 14.203 0 0 1 2.564-4.926"/><path d="M375.048 184.47a6.494 6.494 0 0 1 3.5-2.185 6.521 6.521 0 0 1 4.784.695c.947.524 1.69 1.344 2.296 2.231.847 1.392 1.176 3.107.84 4.708-.287 1.4-1.035 2.726-2.145 3.638-1.297 1.153-3.093 1.714-4.82 1.53-1.305-.099-2.564-.648-3.572-1.482-1.379-1.128-2.245-2.862-2.34-4.645-.103-1.605.438-3.243 1.457-4.49"/></g></svg>