<svg id="e2Z7naph4lx1" xmlns="http://www.w3.org/2000/svg" xmlns:xlink="http://www.w3.org/1999/xlink" viewBox="0 0 100 100" shape-rendering="geometricPrecision" text-rendering="geometricPrecision" project-id="352a8764ecdc402ab7f36cc1f29b293e" export-id="259f93514472487d9d430856802e18e3" cached="false"><g mask="url(#e2Z7naph4lx4)"><path d="M12,0h60.008843c6.627417,0,12,5.372583,12,12v54.604765c0,6.627417-5.372583,12-12,12h-60.008843c-6.627417,0-12-5.372583-12-12L0,12C0,5.372583,5.372583,0,12,0Z" transform="translate(8.732498 11.545076)" fill="none" stroke="#000" stroke-width="10" stroke-linecap="square"/><mask id="e2Z7naph4lx4" mask-type="luminance" x="-150%" y="-150%" height="400%" width="400%"><path d="M0,95.06264L0,5.45301h61.02323L37.90551,25.14078l31.7181,37.24395L99.99999,36.51526v58.54739L0,95.06264Z" fill="#d2dbed" stroke-width="0"/></mask></g><g mask="url(#e2Z7naph4lx8)"><rect width="31.933186" height="31.441907" rx="0" ry="0" transform="translate(8.732498 58.707935)" fill="none" stroke="#000" stroke-width="10"/><mask id="e2Z7naph4lx8" mask-type="luminance" x="-150%" y="-150%" height="400%" width="400%"><rect width="30.103169" height="25.546549" rx="0" ry="0" transform="translate(.000001 69.76173)" fill="#d2dbed" stroke-width="0"/></mask></g><rect width="42.741341" height="19.405551" rx="0" ry="0" transform="matrix(.707359-.706855 0.803161 0.803734 53.886985 31.48756)" fill="#252525" stroke-width="0"/><polygon points="0,-16.160043 13.995008,8.080021 -13.995008,8.080021 0,-16.160043" transform="matrix(-.274772 0.961509-.961509-.274772 49.392477 51.312179)" fill="#252525" stroke-width="0"/></svg>
