<svg id="ehGqlSXTftk1" xmlns="http://www.w3.org/2000/svg" xmlns:xlink="http://www.w3.org/1999/xlink" viewBox="0 0 100 100" shape-rendering="geometricPrecision" text-rendering="geometricPrecision" project-id="dd4698410e024d78b19055b69724d453" export-id="c2597223d3e54fb89164717ef9d4cd28" cached="false"><defs><linearGradient id="ehGqlSXTftk6-fill" x1="0" y1="0.5" x2="1" y2="0.5" spreadMethod="pad" gradientUnits="objectBoundingBox" gradientTransform="translate(0 0)"><stop id="ehGqlSXTftk6-fill-0" offset="0%" stop-color="#2b9312"/><stop id="ehGqlSXTftk6-fill-1" offset="100%" stop-color="#d46ced"/></linearGradient><radialGradient id="ehGqlSXTftk8-fill" cx="0" cy="0" r="0.5" spreadMethod="pad" gradientUnits="objectBoundingBox" gradientTransform="translate(0.5 0.5)"><stop id="ehGqlSXTftk8-fill-0" offset="0%" stop-color="#1155dc"/><stop id="ehGqlSXTftk8-fill-1" offset="100%" stop-color="#e6b759"/></radialGradient></defs><path d="M5.0479,23.090149L92.741341,4.912797L90.776222,64.603291c-3.497906.260714-19.405551,2.210759-19.405551,2.210759-.871264,7.552775,8.038015,13.076636,12.773274,20.633751-9.005958-4.073253-26.611518-10.155529-31.933186-19.651192c0,0-43.232621,1.965119-43.232621,1.965119s-4.421517-46.425938-3.930238-46.671579Z" transform="translate(0 0.000001)" fill="#caedc1" stroke="#3f5787" stroke-width="0.5"/><g transform="matrix(.782435-.206096 0.160251 0.608387 3.928705 26.94795)"><path d="M9.71506,50c2.742317-8.677407.55728-27.75115-3.930241-38.07418L17.57554,7.860477c1.673825,6.15625.776602,12.813575,2.702033,16.949152s10.808155-.49128,10.808155-.49128c-.126489-3.611091-2.04617-11.809735-3.930238-16.457872l12.282-2.210759c2.421866,9.833328,1.216725,31.205042,0,44.350282h-7.86048c1.408566-3.561575,1.585466-11.381995,0-15.78236c0,0-9.811074-3.683267-10.562517.417585s-2.251682,9.411095-3.438953,15.364775h-7.86048Z" fill="#edd028" stroke-width="0"/><path d="M50,38.85409c0-6.15572,4.34408-11.14591,9.70278-11.14591s9.70278,4.99019,9.70278,11.14591-4.34408,11.14591-9.70278,11.14591-9.70278-4.99019-9.70278-11.14591Zm9.70278,5.60681c2.91676,0,5.28126-2.66147,5.28126-5.94457s-2.3645-5.94457-5.28126-5.94457-5.28126,2.66147-5.28126,5.94457s2.3645,5.94457,5.28126,5.94457Z" transform="translate(-8.228941-3.438958)" fill="#5684df" stroke-width="0"/><path d="M17.57554,59.444854c7.918816,6.180785,3.746003,26.418571,9.150078,29.968067s8.286448-9.990658,9.702781-14.984034c1.346497,6.206117,8.290339,14.984034,8.290339,14.984034c5.833949-7.614837,3.286001-20.781561,10.56252-31.687546-3.164979-.678773-6.687128-2.437884-10.56252,0-.500132,3.673634-4.965039,8.512334-8.290339,10.316875-3.56964,1.859523-9.111534-4.70753-11.852124-10.316875-2.405263-.930399-5.995468-.295257-7.000735,1.719479Z" transform="translate(38.012778-47.027758)" fill="url(#ehGqlSXTftk6-fill)" stroke="#3f5787" stroke-width="0.5"/><path d="M26.90985,60.918693c9.196014,1.438903,22.167811-1.600009,27.757308-4.667158L57.614837,68.04225h-11.299436c2.43542,8.322679-1.231296,17.894283-4.17588,23.09015l-8.843037.245639c2.245187-5.753141,5.90387-12.131888,4.667157-21.370671l-9.825596-.49128-1.228195-8.597395Z" transform="matrix(.76 0 0 0.776224 17.266527 3.990345)" fill="#df4545" stroke="#3f5787" stroke-width="0.5"/><path d="M65.72095,77.37657c0-8.13979,6.70858-14.73839,14.98403-14.73839s14.98403,6.5986,14.98403,14.73839-6.70858,14.73839-14.98403,14.73839-14.98403-6.5986-14.98403-14.73839Zm14.61558,5.89535c3.32375,0,6.01818-3.02436,6.01818-6.7551s-2.69443-6.7551-6.01818-6.7551-6.01818,3.02436-6.01818,6.7551s2.69443,6.7551,6.01818,6.7551Z" transform="matrix(.540984 0 0 0.76667 25.008522 9.211239)" fill="url(#ehGqlSXTftk8-fill)" stroke-width="0"/></g></svg>
