<?xml version="1.0" encoding="iso-8859-1"?>

<!DOCTYPE svg PUBLIC "-//W3C//DTD SVG 1.1//EN" "http://www.w3.org/Graphics/SVG/1.1/DTD/svg11.dtd">
<!-- Uploaded to: SVG Repo, www.svgrepo.com, Generator: SVG Repo Mixer Tools -->
<svg height="800px" width="800px" version="1.1" id="_x36_" xmlns="http://www.w3.org/2000/svg" xmlns:xlink="http://www.w3.org/1999/xlink" 
	 viewBox="0 0 512 512"  xml:space="preserve">
<g>
	<g>
		<path style="fill:#8D8452;" d="M276.744,121.339v248.93c0,16.329-3.203,32.19-9.454,47.192
			c-6.094,14.454-14.767,27.424-25.783,38.519c-11.095,11.173-23.908,19.924-38.285,26.018c-14.923,6.407-30.706,9.61-46.958,9.61
			c-16.252,0-32.034-3.203-46.957-9.61c-14.377-6.094-27.19-14.845-38.285-26.018c-11.016-11.095-19.689-24.065-25.783-38.519
			c-6.25-15.001-9.454-30.862-9.454-47.192v-81.101c6.485,2.266,13.439,3.516,20.705,3.516c1.094,0,2.188,0,3.203-0.157
			c5.938-0.235,11.564-1.328,16.955-3.204v80.945c0,44.379,35.706,80.476,79.617,80.476c43.91,0,79.617-36.097,79.617-80.476
			V120.401c0-1.093,0-2.109-0.078-3.203c-2.188-42.426-37.035-76.335-79.538-76.335c-10.939,0-21.408,2.266-30.94,6.407
			c-18.83,7.97-33.909,23.127-42.113,42.035c-3.75,8.594-5.938,18.049-6.485,27.893c-0.078,1.094-0.078,2.11-0.078,3.203v50.864
			c-1.25-4.766-9.845-8.438-20.315-8.438c-5.547,0-10.469,1.016-14.22,2.735c-3.828,1.641-6.25,4.063-6.329,6.798v-51.021
			c0-16.329,3.204-32.19,9.454-47.192c0.859-1.953,1.719-3.907,2.657-5.782c5.86-12.11,13.595-23.127,23.127-32.737
			c9.845-9.923,21.018-17.892,33.441-23.83c1.563-0.782,3.203-1.484,4.844-2.188C124.23,3.203,140.013,0,156.264,0
			c16.251,0,32.034,3.203,46.958,9.61c3.36,1.406,6.563,2.969,9.688,4.688c10.548,5.547,20.08,12.736,28.596,21.33
			c8.282,8.282,15.236,17.658,20.705,27.971c1.875,3.438,3.594,6.953,5.078,10.548c4.22,10.157,7.11,20.783,8.438,31.643
			C276.432,110.948,276.744,116.104,276.744,121.339z"/>
		<path style="fill:#8D8452;" d="M312.529,355.736c0,48.13-21.721,91.102-55.943,119.777C229.474,498.249,194.471,512,156.264,512
			c-21.799,0-42.582-4.453-61.412-12.579c-13.907-5.938-26.877-13.829-38.363-23.44c-18.986-15.783-34.144-35.941-43.988-58.911
			C4.454,398.24,0,377.457,0,355.736c0-86.258,70.006-156.186,156.264-156.186c29.065,0,56.333,7.97,79.617,21.877
			c15.548,9.142,29.378,21.017,40.863,34.925C299.09,283.307,312.529,317.998,312.529,355.736z"/>
		<path style="fill:#D9DCA5;" d="M156.263,471.09c-30.808,0-59.772-11.997-81.556-33.781
			c-21.785-21.785-33.781-50.749-33.781-81.556c0-30.808,11.997-59.771,33.781-81.556c21.784-21.785,50.748-33.782,81.556-33.782
			c30.808,0,59.771,11.997,81.556,33.782c21.784,21.784,33.781,50.748,33.781,81.556c0,30.808-11.997,59.771-33.781,81.556
			C216.035,459.093,187.071,471.09,156.263,471.09z"/>
		<path style="fill:#606060;" d="M192.404,334.62c0-19.96-16.181-36.141-36.141-36.141s-36.141,16.181-36.141,36.141
			c0,15.273,9.474,28.333,22.866,33.625c-5.324,16.103-12.85,38.18-12.85,38.18h24.624h3.003h24.624c0,0-7.526-22.076-12.85-38.18
			C182.93,362.953,192.404,349.893,192.404,334.62z"/>
		<path style="fill:#5C623F;" d="M235.881,120.401v14.924c0-44.379-35.706-80.476-79.617-80.476
			c-43.91,0-79.617,36.097-79.617,80.476v-14.924c0-1.093,0-2.109,0.078-3.203c1.64-42.895,36.722-77.273,79.538-77.273
			c42.816,0,77.898,34.378,79.538,77.273C235.881,118.292,235.881,119.308,235.881,120.401z"/>
		<path style="fill:#5C623F;" d="M76.804,172.438c0,5.391-9.141,9.688-20.471,9.688c-11.329,0-20.549-4.297-20.549-9.688v-0.078
			c0.156-5.313,9.298-9.532,20.549-9.532c10.47,0,19.064,3.673,20.315,8.438C76.726,171.656,76.804,172.047,76.804,172.438z"/>
		<path style="opacity:0.1;fill:#FFFFFF;" d="M156.263,262.533c30.808,0,59.771,11.997,81.556,33.782
			c19.156,19.156,30.74,43.865,33.257,70.497c0.345-3.654,0.524-7.343,0.524-11.059c0-30.808-11.997-59.771-33.781-81.556
			c-21.785-21.785-50.749-33.782-81.556-33.782c-30.808,0-59.772,11.997-81.556,33.782c-21.784,21.784-33.782,50.748-33.782,81.556
			c0,3.717,0.179,7.406,0.524,11.06c2.517-26.632,14.101-51.34,33.257-70.497C96.492,274.53,125.456,262.533,156.263,262.533z"/>
		<path style="opacity:0.1;fill:#040000;" d="M256.61,475.506c-27.145,22.778-62.145,36.484-100.35,36.484
			c-37.953,0-72.741-13.534-99.808-36.029c27.955,14.397,62.836,22.228,99.651,22.228
			C193.302,498.19,228.507,490.202,256.61,475.506z"/>
	</g>
	<path style="fill:none;" d="M52.214,163.021c1.324-0.126,2.696-0.193,4.1-0.193h0C54.909,162.828,53.538,162.895,52.214,163.021z"
		/>
	<path style="opacity:0.1;fill:#040000;" d="M276.719,218.365L37.665,457.419c5.738,6.689,12.01,12.905,18.788,18.542
		c27.066,22.496,61.854,36.029,99.807,36.029c38.205,0,73.205-13.706,100.35-36.484c34.167-28.653,55.893-71.665,55.893-119.751
		c0-37.809-13.435-72.475-35.784-99.501V218.365z"/>
</g>
</svg>