<svg id="eAoq4G0REX21" xmlns="http://www.w3.org/2000/svg" xmlns:xlink="http://www.w3.org/1999/xlink" viewBox="0 0 270 270" shape-rendering="geometricPrecision" text-rendering="geometricPrecision" project-id="ad539a4c36e34ee4bc6ef03f85e395b1" export-id="84c19f4cddab4388a1d7b38ab2e291c0" cached="false"><g transform="matrix(1.162783 0 0 1.14114-24.522413-19.025371)"><rect width="231.849997" height="234.45734" rx="43" ry="43" transform="translate(21.153963 17.569189)" fill="#18a597" stroke-width="0"/><path d="M55.412675,252.026529c0,0-3.508116-82.094281,0-117.026529c4.731076-47.109941,37.454649-67.301082,37.454649-67.301082s18.361309-17.491703,58.05014-15.303929c31.080613,1.713262,53.564105,15.303929,64.333088,49.07885c6.355982,47.089169-10.389534,64.546376-28.837813,77.613907-21.010223,15.995743-48.78252,14.004595-67.335935-2.137649-20.054285-16.580693-10.495038-46.557243,1.995413-58.789361c7.537678-8.62196,25.19607-11.851087,33.824613-8.064936c12.455039,6.769008,10.633491,23.113277,0,24.9042-7.771517,1.308901-18.129066,2.532469-19.43899,13.563007-.931347,7.842637,4.847981,11.938098,11.480258,11.938098c18.906221,3.110397,38.467207-8.291027,43.773028-35.151068c4.963318-23.876198-16.808112-42.342728-39.793662-43.773029-25.124307-1.563388-67.649226,19.896831-68.312454,66.985999-.401633,28.515963,0,103.463522,0,103.463522h-27.192335Z" transform="translate(.000001 0)" stroke="#3f5787" stroke-width="0.54"/></g></svg>
