<?xml version="1.0" encoding="utf-8"?>
<!-- Generator: Adobe Illustrator 25.2.1, SVG Export Plug-In . SVG Version: 6.00 Build 0)  -->
<svg version="1.1" id="Layer_1" xmlns="http://www.w3.org/2000/svg" xmlns:xlink="http://www.w3.org/1999/xlink" x="0px" y="0px"
	 viewBox="0 0 661.8 441.8" style="enable-background:new 0 0 661.8 441.8;" xml:space="preserve">
<style type="text/css">
	.st0{fill:#3D5376;}
	.st1{fill:none;stroke:#3D5376;stroke-width:17.2012;stroke-linecap:round;stroke-linejoin:round;stroke-miterlimit:10;}
</style>
<path class="st0" d="M570.2,376.1c-3.3-5.1-2-12,3.3-15.5c10-6.5,16.8-13.7,18.3-24.4c-13.4-0.2-24.1-9.8-24.1-23.2
	c0-16.3,15.5-24.8,29.4-21.4c7,1.7,18.8,8.2,19.6,30.1c0.8,22.8-9.7,43.9-30.9,57.7c0,0,0,0,0,0c0,0,0,0,0,0c0,0,0,0,0,0
	c0,0,0,0,0,0c0,0,0,0,0,0C580.6,382.7,573.6,381.4,570.2,376.1z"/>
<path class="st0" d="M504.6,376.1c-3.3-5.1-2-12,3.3-15.5c10-6.5,16.8-13.7,18.3-24.4c-13.4-0.2-24.1-9.8-24.1-23.2
	c0-16.3,15.5-24.8,29.4-21.4c7,1.7,18.8,8.2,19.6,30.1c0.8,22.8-9.7,43.9-30.9,57.7c0,0,0,0,0,0c0,0,0,0,0,0c0,0,0,0,0,0
	c0,0,0,0,0,0c0,0,0,0,0,0C515,382.7,508,381.4,504.6,376.1z"/>
<path class="st0" d="M88.4,22c3.3,5.1,2,12-3.3,15.5c-10,6.5-16.8,13.7-18.3,24.4c13.4,0.2,24.1,9.8,24.1,23.2
	c0,16.3-15.5,24.8-29.4,21.4c-7-1.7-18.8-8.2-19.6-30.1c-0.8-22.8,9.7-43.9,30.9-57.7c0,0,0,0,0,0c0,0,0,0,0,0c0,0,0,0,0,0
	c0,0,0,0,0,0c0,0,0,0,0,0C77.9,15.4,84.9,16.7,88.4,22z"/>
<path class="st0" d="M154,22c3.3,5.1,2,12-3.3,15.5c-10,6.5-16.8,13.7-18.3,24.4c13.4,0.2,24.1,9.8,24.1,23.2
	c0,16.3-15.5,24.8-29.4,21.4c-7-1.7-18.8-8.2-19.6-30.1c-0.8-22.8,9.7-43.9,30.9-57.7c0,0,0,0,0,0c0,0,0,0,0,0c0,0,0,0,0,0
	c0,0,0,0,0,0c0,0,0,0,0,0C143.5,15.4,150.5,16.7,154,22z"/>
<path class="st1" d="M180,47.4h356.2c49,0,88.8,39.3,88.8,87.9V275"/>
<path class="st1" d="M474.9,359.7H302.2l-102.3,66.7l0.8-66.7H132c-49,0-88.8-39.3-88.8-87.9V135.3"/>
</svg>
