<svg width="205" height="65" viewBox="0 0 205 65" fill="none" xmlns="http://www.w3.org/2000/svg">
<path d="M57.8946 29.3193H64.8013L68.1479 38.9317C69.0023 41.4238 69.7855 43.8447 70.64 46.4793H70.7824C71.5656 44.1296 72.6336 41.2814 73.4881 38.9317L77.0482 29.3193H81.8188L85.4502 38.9317C86.447 41.5662 87.3727 44.0584 88.1559 46.4793H88.2983C89.0815 43.9871 89.936 41.4238 90.7904 38.9317L94.1369 29.3193H100.688L91.5736 54.5252H85.1654L81.89 45.7672C81.0356 43.4887 80.1812 40.9966 79.3979 38.7181H79.2555C78.4723 40.9966 77.6891 43.2751 76.7634 45.7672L73.5593 54.5252H67.151L57.8946 29.3193Z" fill="white"/>
<path d="M111.866 51.6771V32.4523C111.866 30.722 110.464 29.3193 108.734 29.3193C107.003 29.3193 105.601 30.722 105.601 32.4523V51.6771C105.601 53.4073 107.003 54.81 108.734 54.81C110.464 54.81 111.866 53.4073 111.866 51.6771Z" fill="white"/>
<path d="M144.193 54.3118H135.648L129.382 46.9778C128.457 45.9098 126.962 45.1978 125.395 45.1978V54.3118H118.417V29.4619H129.596C131.163 29.4619 132.515 29.5331 133.655 29.7467C134.794 29.8891 135.862 30.2451 136.859 30.8148C137.856 31.3844 138.639 32.0964 139.208 32.9509C139.778 33.8053 140.063 34.9445 140.063 36.2974C140.063 38.2199 139.564 39.7151 138.639 40.9256C137.642 42.136 136.36 43.0617 134.794 43.7737L144.193 54.3118ZM132.871 37.0806C132.871 36.4398 132.729 35.9414 132.444 35.443C132.159 35.0157 131.732 34.6597 131.091 34.3749C130.664 34.2325 130.166 34.0901 129.596 34.0901C129.026 34.0189 128.386 34.0189 127.602 34.0189H125.324V40.712H127.318C128.314 40.712 129.098 40.6408 129.81 40.5696C130.522 40.4984 131.091 40.2136 131.519 39.9288C131.946 39.6439 132.302 39.2167 132.515 38.7895C132.8 38.3623 132.871 37.7927 132.871 37.0806Z" fill="white"/>
<path d="M182.742 59.8759C181.66 61.9444 183.16 64.4224 185.495 64.4224V64.4224C186.67 64.4224 187.745 63.7586 188.272 62.7073L202.74 33.8294C203.778 31.7582 202.272 29.3193 199.956 29.3193V29.3193C198.771 29.3193 197.69 29.9908 197.164 31.052L194.391 36.6532C193.048 39.4091 191.635 42.3052 190.361 45.1328C190.344 45.1723 190.304 45.1976 190.261 45.1976V45.1976C190.218 45.1976 190.178 45.1719 190.161 45.1324C188.961 42.454 187.829 40.1181 186.487 37.1517L183.601 31.1615C183.058 30.0353 181.919 29.3193 180.669 29.3193V29.3193C178.243 29.3193 176.67 31.8761 177.763 34.0411L185.348 49.0713C186.287 50.9303 186.271 53.1277 185.306 54.973L182.742 59.8759Z" fill="white"/>
<path d="M164.915 47.4047C164.641 47.4047 164.381 47.5197 164.181 47.7074C162.86 48.949 161.12 49.6832 159.074 49.6832C156.081 49.6832 153.612 48.0065 152.297 45.5522C151.973 44.9481 152.452 44.2717 153.138 44.2717H171.412C171.895 44.2717 172.314 43.9265 172.37 43.4465C172.43 42.9383 172.46 42.4302 172.46 41.922C172.46 34.5169 166.978 28.3223 159.145 28.3223C154.045 28.3223 149.801 30.8339 147.435 34.6306C147.048 35.2521 147.526 36.0122 148.258 36.0122H153.32C153.585 36.0122 153.837 35.9043 154.035 35.7278C155.356 34.5502 157.092 33.8761 159.074 33.8761C162.073 33.8761 164.441 35.5594 165.68 38.0218C165.984 38.6264 165.504 39.2875 164.827 39.2875H146.522C146.039 39.2875 145.621 39.6328 145.565 40.1128C145.504 40.6276 145.474 41.153 145.474 41.7084C145.474 49.1135 151.313 55.237 159.216 55.237C164.401 55.237 168.55 52.648 170.784 48.763C171.142 48.1399 170.663 47.4047 169.944 47.4047H164.915Z" fill="white"/>
<path d="M43.2492 41.901C48.5502 37.561 51.8317 31.3271 51.8317 24.1463C51.7476 10.1793 40.0518 0 26.0841 0C12.1165 0 0 10.1793 0 23.6729C0 28.1707 1.34628 32.4318 3.78641 36.1406C6.98382 33.5366 9.25566 31.6428 11.0227 27.934C12.4531 24.9354 11.2751 21.0689 14.7249 17.2023C19.521 11.9943 27.178 14.2037 30.2913 16.9656C37.8641 14.835 45.6893 22.9627 45.6893 22.9627C41.1456 23.4362 30.7961 24.5409 29.7023 31.5638C29.7023 31.7217 29.6181 31.8795 29.6181 32.0373C29.2816 34.957 29.9547 37.9555 31.4693 40.5595L34.4984 45.6887C34.7508 46.1621 35.0032 46.5567 35.3398 47.0301L40.7249 55H52L43.2492 41.901Z" fill="white"/>
</svg>
