<svg id="eRWGKIa0pA71" xmlns="http://www.w3.org/2000/svg" xmlns:xlink="http://www.w3.org/1999/xlink" viewBox="0 0 100 100" shape-rendering="geometricPrecision" text-rendering="geometricPrecision" project-id="8aa85e8c253e4851999c0ba1a89b4c81" export-id="b8903f0bf73847b59c8c8c27c0a21911" cached="false"><rect width="100" height="100" rx="20" ry="20" stroke-width="0"/><g transform="matrix(1.099035 0 0 1.380382-18.099907 65.789468)"><path d="M73.83,4.47v10.53h-2.33v-1.39c-.39878.492577-.914426.877593-1.5,1.12-.634985.256632-1.31523.382477-2,.37-.955691.015459-1.899281-.215273-2.74-.67-.787786-.433745-1.436255-1.082214-1.87-1.87-.903091-1.775071-.903091-3.874929,0-5.65.43441-.804287,1.09033-1.467148,1.89-1.91.839847-.432812,1.775549-.646097,2.72-.62.640304-.007668,1.275812.111278,1.87.35.563955.220101,1.072627.561492,1.49,1v-.48c0-.414214.335786-.75.75-.75v0l1.72-.03Zm-3.3,7.63c1.181168-1.366841,1.181168-3.393159,0-4.76-1.245211-1.207867-3.224789-1.207867-4.47,0-1.168462,1.371545-1.168462,3.388455,0,4.76.583592.601506,1.392189.931472,2.23.91.839752.026904,1.652303-.299568,2.24-.9v-.01Z" fill="#ddf5ff"/><path d="M83,14.4c-.313083.24775-.67395.428183-1.06.53-.426139.120784-.867077.181371-1.31.18-.978485.062725-1.942013-.264444-2.68-.91-.673101-.707699-1.017828-1.665679-.95-2.64v-9.41h1.7c.414214,0,.75.335786.75.75v0v1.64h2.8v2h-2.8v5c-.031011.424663.10538.844602.38,1.17.283575.279397.672685.424859,1.07.4.156377.013462.313623.013462.47,0c.562461-.120758,1.130772.178132,1.35.71l.28.58Z" fill="#ddf5ff"/><path d="M86.48,14.41c-.832981-.43597-1.526165-1.097961-2-1.91-.953818-1.727058-.953818-3.822942,0-5.55.473835-.812039,1.167019-1.47403,2-1.91c1.810356-.917641,3.949644-.917641,5.76,0c.832981.43597,1.526165,1.097961,2,1.91.953818,1.727058.953818,3.822942,0,5.55-.473835.812039-1.167019,1.47403-2,1.91-1.810356.917641-3.949644.917641-5.76,0Zm5.11-2.34c1.181168-1.366841,1.181168-3.393159,0-4.76-1.245211-1.207867-3.224789-1.207867-4.47,0-1.168462,1.371545-1.168462,3.388455,0,4.76.583592.601506,1.392189.931472,2.23.91.838253.02952,1.650583-.293236,2.24-.89v-.02Z" fill="#ddf5ff"/><path d="M103.39,4.35v2.33c-.187765-.03739-.378565-.057475-.57-.06-.825964-.042552-1.632855.257771-2.23.83-.578119.664585-.869372,1.531154-.81,2.41v5.14h-2.46v-10.53h1.59c.414214,0,.75.335786.75.75v0v.78c.859502-1.176588,2.281234-1.805504,3.73-1.65Z" fill="#ddf5ff"/><path d="M29.27,14.77c-.693606-.170385-1.353065-.457841-1.95-.85l.43-.85c.259406-.512107.866493-.741933,1.4-.53.257665.108616.521446.202108.79.28.649804.188693,1.32336.282991,2,.28q2.2,0,2.2-1.16c.009799-.354039-.220165-.67024-.56-.77-.585601-.193582-1.18833-.33087-1.8-.41-.717401-.103569-1.426046-.260674-2.12-.47-.537072-.172978-1.019661-.483214-1.4-.9-.423775-.492783-.638982-1.131231-.6-1.78-.019768-.95808.451804-1.859725,1.25-2.39c1.001134-.646033,2.180075-.960884,3.37-.9.727074.002452,1.451588.086307,2.16.25.625432.131544,1.226166.361038,1.78.68l-.47.9c-.250905.504452-.83993.740922-1.37.55-.68214-.249795-1.40358-.375116-2.13-.37-.565841-.031342-1.130319.082242-1.64.33-.327691.160028-.542286.485752-.56.85-.012389.38329.23341.727409.6.84.605678.220015,1.232272.377501,1.87.47.697277.105867,1.385807.262959,2.06.47.532995.161197,1.015265.457449,1.4.86.412599.478363.620876,1.099605.58,1.73.014373.956127-.470755,1.850582-1.28,2.36-1.041896.64508-2.256332.955669-3.48.89-.85578-.004396-1.70696-.125513-2.53-.36Z" fill="#3cfffc"/><path d="M60.35,4.47v8.91q0,5.54-5.66,5.54c-.969607.006202-1.935417-.121675-2.87-.38-.815291-.21139-1.577971-.589325-2.24-1.11l.71-1.19c.210849-.341064.657324-.448218,1-.24v0c.358455.205112.737129.372667,1.13.5.687.228668,1.40595.346806,2.13.35.91594.080731,1.827233-.199115,2.54-.78.586534-.65575.87921-1.522937.81-2.4v-.57c-.425985.446951-.949656.789219-1.53,1-.638603.241844-1.317219.360601-2,.35-.939024.012747-1.866605-.207124-2.7-.64-.791522-.410913-1.452914-1.034214-1.91-1.8-.475617-.800886-.71806-1.718708-.7-2.65-.016194-.92791.226183-1.842017.7-2.64.4665-.737968,1.127363-1.333091,1.91-1.72.835421-.426321,1.762173-.642563,2.7-.63.707294-.00995,1.409949.115646,2.07.37.60799.237223,1.145065.626258,1.56,1.13v-.65c0-.414214.335786-.75.75-.75h1.58.02ZM57,11.57c.600237-.558769.928577-1.350433.9-2.17.023785-.809957-.30448-1.590499-.9-2.14-1.336254-1.099434-3.263746-1.099434-4.6,0-.591829.551306-.916345,1.331603-.89,2.14-.031142.81801.29345,1.60943.89,2.17c1.331948,1.11138,3.268052,1.11138,4.6,0Z" fill="#3cfffc"/><path d="M47.14,4.47c-.494151-.004737-.943157.286723-1.14.74l-.2.47-4,9.32h1.32c.651964-.005341,1.238027-.398672,1.49-1l4.08-9.52-1.55-.01Z" fill="#3cfffc"/><path d="M42.43,10.8L40,5.22c-.190666-.461117-.641021-.761353-1.14-.76h-1.73l4.08,9.17l1.22-2.83Z" fill="#3cfffc"/></g><g transform="matrix(3.229474 0 0 3.071155-31.697001 62.083696)"><circle r="2.02" transform="translate(26.666332-7.976646)" fill="#ddf5ff"/><path d="M22.68,3.46c-1.63-2-10.48-1.69-12-1.4.305202.610935.514328,1.265298.62,1.94.292816.620244.867613,1.0605,1.542723,1.181623s1.367106-.091856,1.857277-.571623c.233872-.22988.411785-.510435.52-.82.066511-.198617.2812-.305961.48-.24v0c.728692.272709,1.405178.668453,2,1.17.143532.147514.143532.382486,0,.53v0c-.622087.673592-.743297,1.669705-.300899,2.472826s1.349112,1.233004,2.250899,1.067174c.20135-.050809.406199.069428.46.27v0c.112798.718936.112798,1.451064,0,2.17-.016899.098995-.073314.186868-.156289.243442s-.185384.07699-.283711.056558v0c-.89512-.195919-1.815231.202594-2.284666.989522s-.382982,1.785898.214666,2.480478c3.73-3.06,6.66-9.68,5.08-11.54Z" transform="translate(13.526332-18.096648)" fill="#ddf5ff"/><path d="M9.12,6.47L8.34,6c-.215504-.131518-.344959-.367583-.34-.62L8,5c-.002871-.254455.130656-.490988.35-.62l.78-.47c.17148-.094026.296582-.25462.345794-.443894s.018172-.390464-.085794-.556106v0L9,2.27c-.092271-.173167-.252092-.300428-.441525-.351575s-.391586-.021619-.558475.081575v0l-.79.47c-.219675.126829-.490325.126829-.71,0l-.36-.21c-.219344-.129012-.352871-.365545-.35-.62v-.93c.000153-.384443-.30571-.699171-.69-.71h-.74c-.392122,0-.71.317878-.71.71v1c.002871.254455-.130656.490988-.35.62l-.36.21c-.219675.126829-.490325.126829-.71,0L1.44,2c-.165642-.103966-.366833-.135005-.556106-.085794s-.349868.174314-.443894.345794v0l-.34.66c-.103966.165642-.135005.366833-.085794.556106s.174314.349868.345794.443894v0l.78.47c.212411.129691.34141.36113.34.61v.4c-.004189.247312-.136785.47462-.35.6l-.78.47c-.17148.094026-.296582.25462-.345794.443894s-.018172.390464.085794.556106v0l.37.64c.094026.17148.25462.296582.443894.345794s.390464.018172.556106-.085794v0l.78-.47c.219675-.126829.490325-.126829.71,0l.36.21c.219344.129012.352871.365545.35.62v.81c0,.188304.074803.368895.207954.502046s.313742.207954.502046.207954h.73c.188304,0,.368895-.074803.502046-.207954s.207954-.313742.207954-.502046v0-.83c-.002871-.254455.130656-.490988.35-.62l.36-.21c.219675-.126829.490325-.126829.71,0L8,8.36c.165642.103966.366833.135005.556106.085794s.349868-.174314.443894-.345794v0l.37-.64c.105585-.163157.139676-.362463.094322-.551437s-.166188-.351099-.334322-.448563l-.01.01Zm-4.39.2c-.611632.004051-1.165294-.36127-1.402168-.925185s-.110164-1.215027.320895-1.64896s1.081315-.564965,1.646792-.331844.934468.784344.934481,1.395989v0c-.005497.830042-.67994,1.500018-1.51,1.5v0l.01.01Z" transform="translate(13.526332-18.096646)" fill="#3cfffc"/><path d="M13.82,15.18c-.529051-.201094-1.116384-.18336-1.632339.049289s-.918101.661079-1.117661,1.190711v0c-.066511.198617-.2812.305961-.48.24v0c-.728607-.272888-1.405064-.668615-2-1.17-.143532-.147514-.143532-.382486,0-.53v0c.555022-.610992.70706-1.487651.390189-2.249854s-1.045593-1.272703-1.870189-1.310146c-1.387244.528681-2.911502.577964-4.33.14.304822.839746.751283,1.621051,1.32,2.31c3.88,4.57,5.76,5.41,11,2.74-.020571-.027659-.037384-.057922-.05-.09-.194196-.600495-.64469-1.083952-1.23-1.32Z" transform="translate(13.526332-18.096647)" fill="#ddf5ff"/></g></svg>
