<svg id="ea4opYJ3irF1" xmlns="http://www.w3.org/2000/svg" xmlns:xlink="http://www.w3.org/1999/xlink" viewBox="0 0 300 300" shape-rendering="geometricPrecision" text-rendering="geometricPrecision" project-id="d05a9b026aa04478b19771b8c6efee7f" export-id="5295292df8ce474c8fd43573486e8c49" cached="false"><path d="M121.09895,260.46591c-34.11847.57574-61.57912-35.71921-73.90868-76.82875c8.0535,3.35261,18.20817,4.89633,30.91392,4.0413c46.9196-3.15742,61.20902-23.33323,61.20902-55.89429s-24.63519-64.62721-57.24808-64.62721c-.10438,0-.20873.0003-.31306.00089c55.54548-25.51104,155.49377-15.3439,194.7472,23.47012c45.50545,44.99604-89.47892,168.72554-155.40031,169.83794h-.00001Z" transform="translate(.000001 0.000001)" fill="#efeded" stroke-width="0"/><path d="M147.18393,155.21682c-7.23625,13.05701-36.62881-13.4653-49.42409-5.77572s-3.17029,46.09159-18.09612,46.35332-6.65311-38.45413-19.71013-45.69038-41.50163,20.30024-49.19121,7.50496s29.97569-24.98883,29.71396-39.91466-38.33134-25.79135-31.09509-38.84836s37.45922,13.1136,49.42409,5.77572s1.71657-40.04004,15.19561-41.09172s9.66288,34.09856,22.61064,40.42878s41.50163-20.30024,49.19121-7.50496-29.97569,24.98883-29.71396,39.91466s38.33134,25.79135,31.09509,38.84836ZM78.46099,135.22836c9.16315,0,16.59134-7.4282,16.59134-16.59134s-7.4282-16.59134-16.59134-16.59134-16.59134,7.4282-16.59134,16.59134s7.4282,16.59134,16.59134,16.59134Z" transform="matrix(1.196197 0.305164-.298813 1.171302 112.449891-14.037595)" fill-rule="evenodd" stroke-linecap="round" stroke-miterlimit="10"/><path d="M147.18393,155.21682c-7.23625,13.05701-36.62881-13.4653-49.42409-5.77572s-3.17029,46.09159-18.09612,46.35332-6.65311-38.45413-19.71013-45.69038-41.50163,20.30024-49.19121,7.50496s29.97569-24.98883,29.71396-39.91466-38.33134-25.79135-31.09509-38.84836s37.45922,13.1136,49.42409,5.77572s1.71657-40.04004,15.19561-41.09172s9.66288,34.09856,22.61064,40.42878s41.50163-20.30024,49.19121-7.50496-29.97569,24.98883-29.71396,39.91466s38.33134,25.79135,31.09509,38.84836ZM78.46099,135.22836c9.16315,0,16.59134-7.4282,16.59134-16.59134s-7.4282-16.59134-16.59134-16.59134-16.59134,7.4282-16.59134,16.59134s7.4282,16.59134,16.59134,16.59134Z" transform="matrix(1.135984 0 0 1.099578-1.998776-16.909954)" fill="#38dee3" fill-rule="evenodd" stroke-linecap="round" stroke-miterlimit="10"/></svg>
