<svg id="eomJtsMzAeY1" xmlns="http://www.w3.org/2000/svg" xmlns:xlink="http://www.w3.org/1999/xlink" viewBox="0 0 300 300" shape-rendering="geometricPrecision" text-rendering="geometricPrecision" project-id="093448afcd08485fa451e4a7051e3b1b" export-id="4e124ffc7c44420ab33bdcb963bf1553" cached="false"><ellipse rx="30" ry="30" transform="matrix(4.658129 0 0 4.646983 152.12927 149.922514)" fill="#050505" stroke-width="0"/><path d="M31.50139,108.84737c0-3.6867.06896-11.14991.76619-14.59418l36.70187,34.96603L95.8151,108.84736L65.6653,72.78262c3.21538-.91665,8.57051-6.21058,20.99837-7.61382c22.85743,0,32.81653,17.5369,32.81653,43.67856c0,3.64157-.35957,7.18708-1.04031,10.59266l25.43353,24.83225-24.81688,22.66523-18.65521-18.21418c-6.43755,4.72048-14.09337,7.45772-22.30817,7.45772-22.85743,0-45.82557-9.44172-45.82557-41.28781l-.7662-6.04586ZM222.984371,222.018567l-25.072373,25.000987-41.173833-38.600468l26.389622-25.733646l39.856584,39.333127Z" fill="#a2bbed" stroke-width="0"/><path d="M100.69303,262.39965L82.85071,240.78641l107.268833-88.037762-14.427778-14.042531l20.280096-16.426163l33.018974,2.154577l28.461519,32.707763-37.520389,27.741139L208.22557,173.62857L100.69303,262.39965Z" transform="matrix(1.168117 0.073811-.089941 1.423383-4.631153-126.828094)" fill="#a2bbed" stroke-width="0"/></svg>
