<svg id="esAbgZxl9X61" xmlns="http://www.w3.org/2000/svg" xmlns:xlink="http://www.w3.org/1999/xlink" viewBox="0 0 300 300" shape-rendering="geometricPrecision" text-rendering="geometricPrecision" project-id="50ae8cfee062428ca0e40b9ab1ccc7d5" export-id="48db3427b72549ec9927927f8ce1a1cd" cached="false"><path d="M27.3002,39.5829c5.8624-.1268,11.107-3.7129,13.584-9.0261c1.4366-3.0739,2.1602-6.5438,1.97-10.1986C42.2785,9.30395,33.1521,0.394029,22.082,0.071857C9.95038,-0.282005,0,9.44655,0,21.5043c0,9.2056,5.80439,17.054,13.9485,20.0961-.7764-.8133-1.3468-1.8063-1.6954-2.9787-.544-1.8116-.5281-3.9506.0423-6.4171l2.9365-12.3165h-6.06847l.99297-4.3044.2693-1.1408h6.1002l.1109-.5018l1.426-6.17935l8.9099-1.70593-1.8221,7.88528-1.3098,5.947-3.0211,13.3728c-.4595,2.0017-.2799,3.5492.5546,4.6319c0,0,1.2464,1.7904,5.9259,1.6901Zm2.1126-26.1224c2.4823-.4701,4.616,1.6637,4.146,4.146-.2641,1.3837-1.3785,2.5034-2.7676,2.7675-2.4823.4701-4.616-1.6637-4.1459-4.146.264-1.3837,1.3784-2.5034,2.7675-2.7675Z" transform="matrix(6.49555 0 0 7.005892 10.722151 4.056949)" fill="#40a944"/></svg>
