<svg id="eqsH9pgiYXf1" xmlns="http://www.w3.org/2000/svg" xmlns:xlink="http://www.w3.org/1999/xlink" viewBox="0 0 108 92" shape-rendering="geometricPrecision" text-rendering="geometricPrecision" project-id="be4d1c9130a04698b50b2fc80328aa06" export-id="8aad3bb87a4645928e6e616ccc322731" cached="false"><path d="M82.974,61.78l.888,1.528c-.803167.523976-1.678347.928216-2.598,1.2-.98.316-2.231.47-3.739.47-1.384,0-2.637-.264-3.752-.782-1.112519-.515013-2.101993-1.262062-2.902-2.191-.796555-.892543-1.419553-1.925898-1.837-3.047-.393876-1.108745-.596427-2.276374-.599-3.453c0-1.186.209-2.335.604-3.457.41572-1.126281,1.039564-2.164325,1.839-3.06.8-.915,1.767-1.62,2.895-2.152c1.115-.521,2.368-.785,3.752-.785c1.066,0,2,.079,2.797.229.787.155,1.414.324,1.876.509.46.191.886.405,1.29.641l-.72,1.728c-.254977-.120834-.51342-.234216-.775-.34-.798488-.354261-1.639476-.603666-2.502-.742-.615425-.087033-1.236473-.128147-1.858-.123-.907,0-1.768.185-2.562.57-.798607.391214-1.50986.939875-2.091,1.613-.611.689-1.076,1.497-1.419,2.424-.343761.943419-.515153,1.940945-.506,2.945c0,1.401.302,2.681.924,3.84.579584,1.113006,1.444842,2.051779,2.507,2.72c1.022811.667868,2.219468,1.020154,3.441,1.013c1.337,0,2.377-.125,3.1-.378.68356-.227441,1.337261-.536329,1.947-.92m3.487,2.833h2.415v-18.208h-2.416l.001,18.208Zm5.265-16.404v-1.804h14.036v1.804h-5.815v16.404h-2.403v-16.404h-5.818Zm27.175-1.804h2.302l-5.88,9.375v8.832h-2.423v-8.832l-5.759-9.375h2.618l4.595,7.536l4.547-7.536Zm19.785,1.425c-1.233,0-2.332.307-3.282.96-.949.64-1.684,1.539-2.198,2.695-.505,1.159-.762,2.489-.762,4.02c0,1.524.257,2.869.762,4.029.514,1.156,1.249,2.057,2.198,2.695.95.656,2.049.968,3.282.968.924,0,1.774-.173,2.549-.54.77667-.367829,1.459033-.908246,1.995-1.58.580734-.718071,1.012175-1.544915,1.269-2.432.294-.936.437-1.986.437-3.14c0-1.16-.143-2.196-.443-3.143-.292-.948-.71-1.757-1.257-2.423-.525368-.664587-1.194893-1.201095-1.958-1.569-.768-.37-1.632-.54-2.592-.54Zm0-1.779c1.842,0,3.435.406,4.783,1.2c1.332.78,2.352,1.894,3.047,3.331.693,1.434,1.04,3.084,1.04,4.923c0,1.397-.221,2.694-.658,3.876-.444,1.171-1.07,2.184-1.878,3.016-.79693.833533-1.763785,1.485948-2.835,1.913-1.086.446-2.251.667-3.499.667-1.32,0-2.527-.223-3.618-.673-1.065653-.426556-2.026076-1.079234-2.815-1.913-.792-.83-1.397-1.831-1.814-2.995-.421-1.177-.629-2.471-.629-3.891c0-1.361.208-2.601.629-3.76.417-1.158,1.015-2.159,1.789-3.003.766-.837,1.71-1.498,2.822-1.98c1.113-.468,2.328-.71,3.636-.71M153.37,64.613h-2.416v-18.208h9.436v1.804h-7.02v6.116h4.933v1.811h-4.933v8.477Z" transform="matrix(.542618 0 0 0.926007 11.837546 6.681323)" fill="#0081c5"/><path d="M52.057893,35.920407C47.903857,25.184098,74.799,1.58,74.799,1.58L52.057893,35.920407ZM52.547,43.191c0,0-6.56-22.374-31.285-28.732c0,0-3.47,22.907,22.198,39.04c0,0-27.25169-2.0254-43.26415,18.1178h-.06401C1.32568,69.4325,10.74353,53.47085,33.095,49.356c0,0-15.791-11.39-14.734-37.681c0,0,18.514129-1.569994,32.748129,19.728006l8.081836-9.33722C56.823145,27.355746,52.90721,36.68056,52.547,43.191Z" fill="#6c0"/><path d="M101.584,21.716c0,0-28.174.985-39.503,24.225c0,0,10.25-30.911-11.41-42.94c0,0-18.675,19.784-2.626,43.973c0,0-23.201-17.688-44.891-6.369c0,0,12.775,27.681,47.184,16.448c0,0-34.314,20.105-49.538-16.987c0,0,15.919-15.463,41.081-.157c0,0-13.615-19.388,8.06-39.909c0,0,23.775,8.979,16.664,33.889c0,0,8.196-12.63,34.979-12.173" fill="#0081c5"/><g transform="matrix(.427543 0 0 0.539107 4.241919 35.938518)"><path d="M55.59,72.467L45.769,99.25h-2.471l-8.77-26.783h4.678l5.858,18.705l6.472-18.705h4.054ZM70.098,89.329L66.62,79.763l-3.712,9.566h7.19ZM61.71,92.426l-2.57,6.592h-4.105L65.84,72.378h2.721l9.799,26.64h-4.75l-2.381-6.592h-9.519Zm39.57-19.959h4.004v26.55h-4.04L86.257,79.877v19.14h-3.997v-26.55h3.862L101.28,91.9v-19.433Zm29.347,21.867l1.472,3.015c-1.145.667-2.446,1.207-3.898,1.604-1.45.392-3.265.592-5.472.592-1.99,0-3.805-.362-5.474-1.074-1.64272-.69704-3.12267-1.72783-4.346-3.027-1.22673-1.28322-2.1866-2.79713-2.824-4.454-.65251-1.67479-.98329-3.45761-.975-5.255c0-1.849.329-3.596.986-5.281.64081-1.65106,1.60001-3.16001,2.823-4.441c1.22373-1.28619,2.69989-2.30582,4.336-2.995c1.669-.718,3.484-1.058,5.474-1.058c1.687,0,3.108.083,4.266.304c1.161.211,2.084.465,2.766.745.684.27,1.334.579,1.951.924l-1.338,3.168c-.56893-.26969-1.14766-.51819-1.735-.745-.52-.202-1.259-.405-2.22-.601-.953-.197-2.055-.281-3.303-.281-1.556,0-3.045.436-4.461,1.332-1.423.908-2.554,2.137-3.4,3.713-.843,1.587-1.254,3.311-1.254,5.216c0,1.908.421,3.65,1.285,5.204.864,1.58,2.013,2.824,3.448,3.727c1.425.898,2.961,1.355,4.597,1.355c1.754,0,3.136-.148,4.169-.461l3.127-1.226Zm17.847-19.039c-1.299,0-2.481.244-3.548.766-1.05678.50845-1.98672,1.2464-2.722,2.16-.753.933-1.332,2.04-1.729,3.329-.395,1.286-.595,2.679-.595,4.185c0,1.466.2,2.843.595,4.124.398,1.299.981,2.416,1.75,3.362.72737.92836,1.6565,1.67899,2.717,2.195c1.055.523,2.233.787,3.532.787c1.734,0,3.247-.457,4.545-1.337c1.283-.896,2.298-2.143,3.013-3.758.705-1.598,1.06-3.388,1.06-5.373c0-1.466-.2-2.836-.595-4.115-.393-1.282-.976-2.397-1.74-3.35-.73327-.92273-1.65917-1.67423-2.713-2.202-1.063-.524-2.255-.773-3.57-.773Zm0-3.335c2.681,0,5.049.568,7.122,1.739c2.045,1.166,3.605,2.804,4.713,4.881c1.11,2.084,1.647,4.473,1.647,7.155c0,2.075-.335,3.956-1.035,5.666-.705,1.709-1.69,3.172-2.945,4.383-1.211,1.219-2.667,2.149-4.315,2.797-1.63.637-3.366.964-5.187.964-2.589,0-4.901-.567-6.939-1.697-2.047-1.13-3.651-2.73-4.796-4.828-1.155-2.102-1.735-4.522-1.735-7.285c0-1.956.331-3.754.995-5.449.664-1.685,1.584-3.138,2.779-4.381c1.193-1.239,2.626-2.206,4.297-2.902l5.399-1.043Zm39.449.507v17.715c0,1.54-.383,3.015-1.152,4.453-.748,1.427-1.917,2.607-3.55,3.521-1.625.918-3.604,1.389-6.036,1.389-2.261,0-4.231-.388-5.819-1.15-1.614-.765-2.817-1.841-3.655-3.213-.804-1.383-1.21-3.008-1.21-4.86v-17.856h4.58v17.37c0,1.41.224,2.564.665,3.485.43643.91954,1.18629,1.65344,2.115,2.07.965.458,2.179.69,3.64.69c1.38,0,2.54-.29,3.469-.848.905-.587,1.616-1.348,2.089-2.303.474-.96.706-1.992.706-3.094v-17.37l4.158.001Zm24.508,0L202.627,99.25h-2.513l-8.762-26.783h4.662l5.878,18.705l6.487-18.705h4.052Zm19.51,23.144v3.407h-16.089v-26.55h15.624v3.403h-11.044v7.779h8.037v3.379h-8.037v8.582h11.509Zm8.628-11.672h2.431c1.726,0,3.059-.405,3.979-1.26.925-.839,1.399-1.828,1.399-2.954c0-1.185-.449-2.16-1.328-2.96-.88-.79-2.222-1.189-4.031-1.189h-2.451l.001,8.363Zm15.347,15.069l-5.13.388-7.475-12.34h-2.742v11.962h-4.577v-26.55h7.36c2.058,0,3.778.332,5.235.98c1.47.668,2.537,1.513,3.223,2.558.702,1.047,1.054,2.138,1.054,3.292c0,1.668-.542,3.123-1.6,4.352-1.06,1.238-2.228,2.051-3.473,2.419l8.125,12.939Z" transform="translate(-16.917272-6.664379)" fill="#6c0"/></g></svg>
