<svg id="eF86qMtNvkA1" xmlns="http://www.w3.org/2000/svg" xmlns:xlink="http://www.w3.org/1999/xlink" viewBox="0 0 100 100" shape-rendering="geometricPrecision" text-rendering="geometricPrecision" project-id="564e688ac4cc40e1a89355076f0a0e00" export-id="04bccaa025954ce2b7d20a9d92ca99e3" cached="false"><rect width="100" height="100" rx="13" ry="13" fill="#050505" stroke-width="0"/><rect width="15.475313" height="100" rx="0" ry="0" transform="matrix(1 0 0 0.745802 53.320209 13.553508)" fill="#f32ca2" stroke-width="0"/><rect width="15.475313" height="100" rx="0" ry="0" transform="matrix(1 0 0 0.360741 79.969551 49.649008)" fill="#f32ca2" stroke-width="0"/><rect width="100" height="13.264554" rx="0" ry="0" transform="matrix(.432264 0.358188-.638045 0.769999 19.079591 39.435304)" fill="#f32ca2" stroke-width="0"/><ellipse rx="5.643169" ry="5.69755" transform="matrix(1.131375 0 0 1.148065 87.707208 85.467752)" fill="#f32ca2" stroke="#fff" stroke-width="3"/><ellipse rx="5.643169" ry="5.69755" transform="matrix(1.131375 0 0 1.148065 62.306017 82.616662)" fill="#f32ca2" stroke="#fff" stroke-width="3"/><ellipse rx="5.643169" ry="5.69755" transform="matrix(1.131375 0 0 1.148065 14.847921 43.458842)" fill="#f32ca2" stroke="#fff" stroke-width="3"/><ellipse rx="5.643169" ry="5.69755" transform="matrix(1.131375 0 0 1.148065 87.707212 50)" fill="#f32ca2" stroke="#fff" stroke-width="3"/><ellipse rx="5.643169" ry="5.69755" transform="matrix(1.131375 0 0 1.148065 86.354091 26.635795)" fill="#f32ca2" stroke="#fff" stroke-width="3"/><ellipse rx="5.643169" ry="5.69755" transform="matrix(1.131375 0 0 1.148065 61.057866 20.094637)" fill="#f32ca2" stroke="#fff" stroke-width="3"/><line x1="-32.579535" y1="-26.706292" x2="32.579536" y2="26.706292" transform="translate(41.042917 57.34468)" fill="none" stroke="#fff" stroke-width="3"/><line x1="-32.579535" y1="-26.706292" x2="32.579536" y2="26.706292" transform="translate(32.579535 67.558376)" fill="none" stroke="#fff" stroke-width="3"/><line x1="0" y1="-45.08" x2="0" y2="45.08" transform="translate(53.320209 50.843608)" fill="none" stroke="#fff" stroke-width="3"/><line x1="0" y1="-45.08" x2="0" y2="45.08" transform="translate(68.795522 50.843608)" fill="none" stroke="#fff" stroke-width="3"/><line x1="0" y1="-45.08" x2="0" y2="45.08" transform="matrix(-1 0 0 0.627422 79.969551 67.558376)" fill="none" stroke="#fff" stroke-width="3"/><line x1="0" y1="-45.08" x2="0" y2="45.08" transform="matrix(1 0 0 0.627423 94.091752 67.686058)" fill="none" stroke="#fff" stroke-width="3"/></svg>
