<svg id="Layer_1" data-name="Layer 1" xmlns="http://www.w3.org/2000/svg" viewBox="0 0 186.02 186.5"><defs><style>.cls-1{fill:#ff7900;}</style></defs><title>Vecteezy RGB_Orange Logomark</title><path class="cls-1" d="M121.11,86.71c.24-4.36.24-8.48.24-12.59,0-9.21-2.42-18.41-8.48-18.41-4.6,0-7,3.87-7,10.66C105.85,77.51,113.35,84.29,121.11,86.71ZM93.49,156.23c-28.34,0-31-25.44-31-51.59,0-25.19-1.94-30.77-10.66-30.77H39V57.16H51.83c24.47,0,27.62,20.35,27.62,47.48,0,25.91,1.93,34.63,13.8,34.63,12.6,0,21.32-20.34,25.43-36.81C100.28,98.1,88.89,85,88.89,66.12c0-15,9.69-27.37,24.22-27.37,16,0,25,15.26,25,35.37,0,5.08-.24,9.93-.48,13.56h18.89v16.71H134.91C129.83,129.83,115.78,156.23,93.49,156.23ZM93,186.5c65.4,0,93-41.42,93-92.52,0-70.49-32-94-74.12-94C57.65,0,0,44.57,0,94,0,145.08,41.66,186.5,93,186.5Z"/></svg>