<svg id="eOo3BRFcIqL1" xmlns="http://www.w3.org/2000/svg" xmlns:xlink="http://www.w3.org/1999/xlink" viewBox="0 0 54 50.8" shape-rendering="geometricPrecision" text-rendering="geometricPrecision" project-id="40110f352ea44886b388a8a3282b7e52" export-id="f9eab3f62c834dc6a9cf78d7e5e66b5a" cached="false"><g transform="matrix(1.349904 0 0 1.339832 1.727763 2.162006)"><path d="M31.3987,7.36607c0,0,.9375,1.00447,2.2471,1.00447c1.0342,0,1.7857-.625,1.7857-1.48066c0-1.04911-.9599-1.53274-2.1206-1.53274h-.6845l-.4092-.92262l1.8155-2.15029c.3869-.46131.7142-.75149.7142-.75149s-.2901.01488-.8779.01488h-2.9539v-1.54762h6.0491v1.13095L34.5386,3.93601c1.3691.19345,2.7083,1.16816,2.7083,2.88691c0,1.68899-1.2797,3.25148-3.4895,3.25148-2.1057,0-3.2738-1.3244-3.2738-1.3244l.9151-1.38393Z" fill="#04aa6d"/><path d="M19.5981,9.45695L27.5892,23.6831l3.9434-7.0312L23.988,3.22183h-8.7798L11.5698,9.70249L7.93146,3.22183h-7.894351L11.5252,23.6831l.0446-.0744.0447.0744L19.5981,9.45695Z" fill="#04aa6d"/><path d="M0.118958,33.3257h1.168152c0,.3423.29762.6697.8259.6697.49107,0,.81845-.2456.81845-.573c0-.2827-.21578-.4092-.5878-.491l-.66964-.1712c-1.130955-.2976-1.421134-.9003-1.421134-1.5401c0-.7813.773814-1.4956,1.867564-1.4956.89285,0,1.90476.4539,1.88988,1.57h-1.18304c0-.3423-.3125-.5581-.66964-.5581-.38691,0-.65476.2232-.65476.5357c0,.2605.24553.4093.53571.4762l.80357.2158c1.13095.2902,1.33185.997,1.33185,1.4583c0,1.0194-1.01935,1.5774-2.03869,1.5774-.98959,0-1.994051-.6027-2.016372-1.6741Z" fill="#04aa6d"/><path d="M5.20837,32.3584c0-1.5922,1.27977-2.6339,2.73066-2.6339.87053,0,1.57738.3869,2.03869.9673l-.87798.6994c-.26041-.3125-.68452-.506-1.13839-.506-.87054,0-1.49554.625-1.49554,1.4732c0,.8408.625,1.4807,1.49554,1.4807.45387,0,.87798-.1934,1.13839-.5059l.87798.6994c-.46131.5803-1.16816.9672-2.03869.9672-1.45089,0-2.73066-1.0491-2.73066-2.6414Z" fill="#04aa6d"/><path d="M15.9895,32.0535v2.8125h-1.25v-2.7232c0-.8036-.4836-1.2351-1.0416-1.2351-.573,0-1.2798.3348-1.2798,1.3095v2.6563h-1.25v-7.753h1.2574v3.4896c.2456-.6102,1.0566-.8929,1.5551-.8929c1.2946.0074,2.0089.878,2.0089,2.3363Z" fill="#04aa6d"/><path d="M17.299,32.3584c0-1.5922,1.2351-2.6339,2.6636-2.6339c1.4286,0,2.6786,1.0417,2.6786,2.6339s-1.25,2.6414-2.6786,2.6414c-1.4285,0-2.6636-1.0491-2.6636-2.6414Zm4.0848,0c0-.863-.6474-1.4732-1.4212-1.4732s-1.4062.6102-1.4062,1.4732c0,.878.6324,1.4807,1.4062,1.4807s1.4212-.6027,1.4212-1.4807Z" fill="#04aa6d"/><path d="M23.7053,32.3584c0-1.5922,1.2351-2.6339,2.6637-2.6339s2.6785,1.0417,2.6785,2.6339-1.25,2.6414-2.6785,2.6414c-1.4212,0-2.6637-1.0491-2.6637-2.6414Zm4.0848,0c0-.863-.6473-1.4732-1.4211-1.4732s-1.4063.6102-1.4063,1.4732c0,.878.6324,1.4807,1.4063,1.4807.7812,0,1.4211-.6027,1.4211-1.4807Z" fill="#04aa6d"/><path d="M30.4314,34.8735v-7.753h1.25v7.753h-1.25Z" fill="#04aa6d"/><path d="M33.0431,33.3257h1.1681c0,.3423.2977.6697.8259.6697.4911,0,.8185-.2456.8185-.573c0-.2827-.2158-.4092-.5878-.491l-.6696-.1712c-1.131-.2976-1.4212-.9003-1.4212-1.5401c0-.7813.7738-1.4956,1.8676-1.4956.8928,0,1.9047.4539,1.8899,1.57h-1.1905c0-.3423-.3125-.5581-.6697-.5581-.3869,0-.6547.2232-.6547.5357c0,.2605.2455.4093.5357.4762l.8036.2158c1.1309.2902,1.3318.997,1.3318,1.4583c0,1.0194-1.0193,1.5774-2.0387,1.5774-.9896,0-1.9866-.6027-2.0089-1.6741Z" fill="#04aa6d"/></g></svg>
