<svg id="e4VhHdUj02J1" xmlns="http://www.w3.org/2000/svg" xmlns:xlink="http://www.w3.org/1999/xlink" viewBox="0 0 34 34" shape-rendering="geometricPrecision" text-rendering="geometricPrecision" project-id="000805fac8b44dd581af39e576eb2435" export-id="e106f9a833a946cdbe6009662b355b4c" cached="false"><g transform="translate(0 0.5)"><path d="M13.2371,21.0407l11.0815-8.1901c.5433-.4015,1.3198-.2449,1.5787.3788c1.3624,3.2891.7537,7.2418-1.957,9.9557s-6.4822,3.309-9.9295,1.9535l-3.7659,1.7457c5.4014,3.6963,11.9604,2.7822,16.0591-1.3242c3.2511-3.255,4.258-7.6918,3.3165-11.6928l.0085.0085c-1.3653-5.87771.3357-8.22709,3.82-13.031224.0824-.113909.1649-.227819.2474-.344576L29.1113,5.09055v-.01424L13.2343,21.0436"/><path d="M10.9503,23.0313c-3.87687-3.7078-3.20845-9.446.0995-12.755c2.4461-2.44908,6.4538-3.44863,9.9523-1.9792l3.7574-1.73712c-.6769-.48981-1.5445-1.01664-2.54-1.38685-4.4997-1.85387-9.8869-.93121-13.54471,2.72813C5.15635,11.4239,4.0499,16.8403,5.94992,21.4622c1.41932,3.4543-.90735,5.8976-3.25108,8.3638-.83055.8742-1.66394,1.7485-2.3352,2.674L10.9474,23.0341"/></g></svg>
